<svg id="svg" version="1.1" xmlns="http://www.w3.org/2000/svg" xmlns:xlink="http://www.w3.org/1999/xlink" width="400" height="400" viewBox="0, 0, 400,400"><g id="svgg"><path id="path0" d="M0.000 200.000 L 0.000 400.000 200.000 400.000 L 400.000 400.000 400.000 200.000 L 400.000 0.000 200.000 0.000 L 0.000 0.000 0.000 200.000 M111.469 148.709 C 111.946 149.089,113.909 151.920,115.831 155.000 C 117.752 158.080,119.702 161.140,120.163 161.800 C 120.625 162.460,121.220 163.360,121.486 163.800 C 123.334 166.858,131.517 179.633,132.271 180.638 C 132.782 181.319,133.200 182.069,133.200 182.304 C 133.200 182.540,133.341 182.793,133.513 182.867 C 133.686 182.940,134.890 184.710,136.189 186.800 C 139.448 192.042,142.677 197.081,144.049 199.065 C 144.682 199.981,145.200 200.848,145.200 200.992 C 145.200 201.136,145.650 201.843,146.200 202.564 C 146.750 203.286,147.200 204.069,147.200 204.304 C 147.200 204.540,147.345 204.793,147.521 204.867 C 147.778 204.973,151.093 210.056,154.119 214.983 C 154.384 215.414,154.780 215.978,155.000 216.236 C 155.220 216.495,157.470 220.049,160.000 224.135 C 162.530 228.221,164.690 231.572,164.800 231.582 C 164.910 231.592,164.951 213.016,164.891 190.301 C 164.789 151.687,164.826 148.970,165.467 148.501 C 166.589 147.681,176.331 147.814,177.269 148.662 C 178.447 149.729,178.406 249.355,177.226 249.986 C 176.431 250.412,164.461 250.568,163.000 250.172 C 162.560 250.053,161.570 248.888,160.800 247.584 C 160.030 246.279,159.265 245.209,159.100 245.206 C 158.935 245.203,158.800 244.989,158.800 244.731 C 158.800 244.474,158.542 243.978,158.228 243.631 C 157.913 243.283,157.414 242.549,157.119 241.999 C 156.249 240.379,153.425 236.211,153.100 236.067 C 152.935 235.993,152.800 235.740,152.800 235.504 C 152.800 235.269,152.350 234.486,151.800 233.764 C 151.250 233.043,150.800 232.323,150.800 232.164 C 150.800 232.006,150.350 231.286,149.800 230.564 C 149.250 229.843,148.800 229.076,148.800 228.860 C 148.800 228.644,148.657 228.407,148.482 228.333 C 148.221 228.224,144.514 222.642,143.000 220.077 C 142.780 219.705,142.502 219.310,142.382 219.200 C 142.262 219.090,141.100 217.290,139.800 215.200 C 138.500 213.110,137.338 211.310,137.218 211.200 C 137.098 211.090,136.820 210.701,136.600 210.335 C 134.825 207.387,131.366 202.174,131.113 202.067 C 130.941 201.993,130.800 201.740,130.800 201.504 C 130.800 201.269,130.350 200.486,129.800 199.764 C 129.250 199.043,128.800 198.339,128.800 198.200 C 128.800 198.061,128.350 197.357,127.800 196.636 C 127.250 195.914,126.800 195.131,126.800 194.896 C 126.800 194.660,126.665 194.407,126.500 194.333 C 126.175 194.189,123.351 190.021,122.481 188.401 C 122.186 187.851,121.687 187.117,121.372 186.769 C 121.058 186.422,120.800 185.941,120.800 185.702 C 120.800 185.462,120.659 185.207,120.487 185.133 C 120.314 185.060,119.105 183.290,117.800 181.200 C 116.495 179.110,115.286 177.340,115.113 177.267 C 114.941 177.193,114.800 176.893,114.800 176.600 C 114.800 176.307,114.658 176.007,114.483 175.933 C 114.019 175.738,108.800 167.296,108.800 166.740 C 108.800 166.480,108.705 166.362,108.589 166.478 C 108.473 166.594,108.385 185.277,108.394 207.997 C 108.406 238.263,108.289 249.451,107.956 249.853 C 107.250 250.703,96.690 250.633,95.829 249.771 C 94.873 248.816,94.868 150.252,95.823 148.889 C 96.678 147.667,109.967 147.514,111.469 148.709 M254.720 148.480 C 255.541 149.301,255.378 159.846,254.539 160.168 C 254.175 160.308,245.400 160.407,235.039 160.388 L 216.200 160.354 216.085 175.277 C 216.021 183.485,216.075 190.785,216.203 191.500 L 216.436 192.800 234.429 192.800 L 252.422 192.800 252.311 198.500 L 252.200 204.200 234.307 204.304 L 216.413 204.408 216.195 205.304 C 216.076 205.797,216.028 213.490,216.089 222.400 L 216.200 238.600 236.876 238.704 L 257.552 238.807 257.817 240.574 C 258.274 243.618,257.884 249.577,257.200 250.009 C 256.393 250.518,204.407 250.518,203.600 250.008 C 202.510 249.319,202.505 149.895,203.595 148.805 C 204.579 147.821,253.749 147.509,254.720 148.480 M336.026 148.414 C 336.732 148.792,336.800 149.298,336.800 154.200 C 336.800 161.031,338.343 160.400,321.626 160.400 L 308.000 160.400 308.000 204.986 C 308.000 248.657,307.984 249.580,307.226 249.986 C 306.801 250.214,304.179 250.400,301.400 250.400 C 298.621 250.400,295.999 250.214,295.574 249.986 C 294.816 249.580,294.800 248.656,294.800 204.886 L 294.800 160.200 280.633 160.200 C 272.842 160.200,266.317 160.051,266.133 159.868 C 265.426 159.163,265.483 149.375,266.198 148.659 C 266.995 147.862,334.552 147.625,336.026 148.414 M70.219 235.553 C 77.353 238.793,77.282 248.415,70.103 251.415 C 63.518 254.166,56.346 246.377,59.598 240.005 C 61.815 235.659,66.307 233.776,70.219 235.553 " stroke="none" fill="#6b2b7b" fill-rule="evenodd"></path><path id="path1" d="M96.498 199.300 L 96.600 249.400 101.544 249.513 C 104.938 249.590,106.668 249.476,107.063 249.148 C 107.583 248.716,107.636 173.722,107.122 165.436 C 106.970 162.990,107.605 162.674,108.631 164.684 C 109.054 165.512,110.803 168.441,112.518 171.194 C 114.234 173.947,115.854 176.550,116.118 176.978 C 116.383 177.406,116.752 177.946,116.937 178.178 C 117.252 178.572,119.646 182.275,128.203 195.600 C 130.110 198.570,133.082 203.160,134.806 205.800 C 137.498 209.919,145.351 222.081,147.200 224.994 C 150.249 229.796,153.405 234.637,153.594 234.800 C 153.722 234.910,154.441 235.990,155.193 237.200 C 155.945 238.410,158.062 241.699,159.898 244.510 L 163.236 249.619 169.918 249.510 L 176.600 249.400 176.702 199.300 L 176.803 149.200 171.391 149.200 L 165.979 149.200 166.000 191.300 C 166.012 214.455,166.016 233.625,166.011 233.900 C 165.982 235.264,160.800 228.232,160.800 226.829 C 160.800 226.630,160.658 226.407,160.484 226.333 C 160.233 226.227,155.527 219.017,153.088 215.000 C 152.821 214.560,152.197 213.627,151.701 212.927 C 151.205 212.226,150.800 211.476,150.800 211.260 C 150.800 211.044,150.659 210.807,150.486 210.733 C 150.313 210.660,148.198 207.483,145.786 203.672 C 143.374 199.862,141.130 196.326,140.800 195.813 C 138.669 192.506,131.490 181.260,131.089 180.600 C 130.821 180.160,130.197 179.227,129.701 178.527 C 129.205 177.826,128.800 177.123,128.800 176.964 C 128.800 176.806,128.350 176.086,127.800 175.364 C 127.250 174.643,126.800 173.876,126.800 173.660 C 126.800 173.444,126.658 173.207,126.484 173.133 C 126.233 173.027,121.527 165.817,119.088 161.800 C 118.821 161.360,118.197 160.427,117.701 159.727 C 117.205 159.026,116.800 158.323,116.800 158.164 C 116.800 158.006,116.350 157.286,115.800 156.564 C 115.250 155.843,114.800 155.061,114.800 154.827 C 114.800 154.592,114.661 154.400,114.491 154.400 C 114.321 154.400,113.826 153.725,113.391 152.900 C 112.956 152.075,112.420 151.169,112.200 150.886 C 110.870 149.178,110.983 149.200,103.570 149.200 L 96.397 149.200 96.498 199.300 M204.243 149.833 C 203.925 150.660,203.925 248.140,204.243 248.967 C 204.461 249.535,207.160 249.600,230.643 249.600 L 256.800 249.600 256.800 244.404 L 256.800 239.207 236.100 239.104 L 215.400 239.000 215.296 221.626 C 215.214 207.993,215.300 204.184,215.696 203.932 C 215.973 203.756,223.880 203.609,233.267 203.606 C 242.654 203.603,250.619 203.491,250.967 203.357 C 251.495 203.155,251.600 202.326,251.600 198.357 L 251.600 193.600 233.880 193.600 C 220.631 193.600,216.039 193.479,215.680 193.120 C 214.990 192.430,214.990 160.370,215.680 159.680 C 216.039 159.321,220.793 159.199,234.580 159.195 C 244.711 159.192,253.386 159.086,253.858 158.959 C 254.735 158.723,255.283 151.723,254.569 149.863 C 254.188 148.869,204.624 148.839,204.243 149.833 M267.069 149.464 C 266.445 150.089,266.775 158.705,267.433 158.957 C 267.781 159.091,274.149 159.200,281.584 159.200 C 292.431 159.200,295.190 159.306,295.549 159.739 C 295.872 160.127,296.025 172.718,296.098 204.839 L 296.200 249.400 301.500 249.512 L 306.800 249.623 306.806 204.912 C 306.809 180.320,306.954 159.977,307.127 159.705 C 307.364 159.331,310.888 159.185,321.620 159.105 L 335.800 159.000 335.800 154.200 L 335.800 149.400 301.569 149.298 C 282.742 149.242,267.217 149.317,267.069 149.464 M64.004 236.742 C 59.661 239.071,58.588 245.017,61.862 248.610 C 66.268 253.447,74.800 250.011,74.800 243.400 C 74.800 238.104,68.597 234.279,64.004 236.742 " stroke="none" fill="#faf9fa" fill-rule="evenodd"></path><path id="path2" d="M96.185 149.300 C 96.080 149.575,96.041 172.300,96.097 199.800 L 96.200 249.800 101.304 249.912 C 104.373 249.979,106.725 249.854,107.204 249.598 C 108.064 249.137,108.437 178.362,107.631 168.600 C 107.261 164.130,107.339 163.794,108.434 165.144 C 109.386 166.319,109.427 165.907,108.511 164.358 C 107.535 162.706,106.979 163.137,107.122 165.436 C 107.636 173.722,107.583 248.716,107.063 249.148 C 106.668 249.476,104.938 249.590,101.544 249.513 L 96.600 249.400 96.498 199.300 L 96.397 149.200 103.570 149.200 C 110.933 149.200,111.549 149.322,112.110 150.893 C 112.209 151.172,112.407 151.293,112.549 151.163 C 112.692 151.032,112.365 150.447,111.823 149.863 L 110.838 148.800 103.607 148.800 C 98.189 148.800,96.327 148.925,96.185 149.300 M165.789 149.289 C 165.682 149.570,165.641 167.890,165.699 190.000 L 165.804 230.200 165.902 189.700 L 166.000 149.200 171.402 149.200 L 176.803 149.200 176.702 199.300 L 176.600 249.400 169.918 249.510 L 163.236 249.619 159.888 244.510 C 158.047 241.699,155.924 238.370,155.171 237.111 C 154.417 235.853,153.668 234.818,153.507 234.811 C 153.210 234.800,156.915 240.742,160.858 246.600 L 163.012 249.800 169.896 249.909 C 176.766 250.019,176.780 250.017,177.000 249.109 C 177.120 248.609,177.170 225.880,177.110 198.600 L 177.000 149.000 171.492 148.889 C 167.306 148.804,165.937 148.900,165.789 149.289 M204.185 149.224 C 204.039 149.460,204.028 149.761,204.160 149.893 C 204.292 150.025,204.400 149.923,204.400 149.667 C 204.400 149.045,254.229 148.989,254.537 149.610 C 254.649 149.835,254.694 149.791,254.637 149.510 C 254.499 148.831,204.603 148.548,204.185 149.224 M266.900 149.065 C 266.077 149.397,266.202 159.038,267.033 159.357 C 267.381 159.491,273.749 159.600,281.184 159.600 C 292.130 159.600,294.788 159.704,295.156 160.147 C 295.489 160.548,295.606 172.521,295.595 205.017 C 295.583 240.528,295.681 249.404,296.090 249.664 C 296.370 249.842,298.940 249.954,301.800 249.912 L 307.000 249.836 301.600 249.618 L 296.200 249.400 296.098 204.839 C 296.025 172.718,295.872 160.127,295.549 159.739 C 295.190 159.307,292.403 159.199,281.451 159.194 C 273.943 159.191,267.569 159.041,267.286 158.862 C 266.906 158.620,266.802 157.353,266.886 153.968 L 267.000 149.400 301.462 149.400 C 320.416 149.400,335.840 149.265,335.738 149.100 C 335.535 148.772,267.712 148.737,266.900 149.065 M112.858 151.800 C 113.478 153.280,114.182 154.400,114.491 154.400 C 114.691 154.400,114.451 153.815,113.957 153.100 C 112.906 151.579,112.627 151.248,112.858 151.800 M116.800 158.302 C 116.800 158.522,117.070 158.926,117.400 159.200 C 117.735 159.478,118.000 159.521,118.000 159.298 C 118.000 159.078,117.730 158.674,117.400 158.400 C 117.065 158.122,116.800 158.079,116.800 158.302 M235.036 159.100 C 221.998 159.175,216.109 159.344,215.736 159.653 C 214.995 160.268,214.941 192.381,215.680 193.120 C 216.039 193.479,220.631 193.600,233.880 193.600 L 251.600 193.600 251.600 198.357 C 251.600 202.326,251.495 203.155,250.967 203.357 C 250.619 203.491,242.654 203.603,233.267 203.606 C 223.880 203.609,215.973 203.756,215.696 203.932 C 214.877 204.452,215.175 238.872,216.000 239.097 C 216.449 239.220,216.473 239.171,216.096 238.904 C 215.700 238.625,215.614 234.832,215.696 221.374 L 215.800 204.200 233.800 204.000 L 251.800 203.800 251.800 198.600 L 251.800 193.400 233.800 193.200 L 215.800 193.000 215.800 176.400 L 215.800 159.800 234.984 159.696 C 246.969 159.631,254.316 159.444,254.564 159.196 C 254.825 158.935,254.763 158.833,254.380 158.896 C 254.061 158.949,245.356 159.041,235.036 159.100 M321.620 159.100 C 310.892 159.184,307.364 159.331,307.127 159.705 C 306.954 159.977,306.853 180.270,306.904 204.800 L 306.995 249.400 307.197 204.600 L 307.400 159.800 321.385 159.695 C 329.903 159.631,335.525 159.435,335.765 159.195 C 335.982 158.978,336.079 158.843,335.980 158.895 C 335.881 158.947,329.419 159.039,321.620 159.100 M118.853 161.400 C 118.935 161.620,120.003 163.330,121.227 165.200 C 122.450 167.070,124.070 169.630,124.826 170.889 C 125.582 172.147,126.332 173.182,126.493 173.189 C 126.828 173.202,120.186 162.514,119.292 161.600 C 118.968 161.270,118.771 161.180,118.853 161.400 M110.231 168.300 C 110.840 169.345,112.336 171.730,113.555 173.600 C 114.774 175.470,115.958 177.298,116.186 177.662 C 120.230 184.132,121.449 185.974,121.698 185.986 C 121.956 185.998,117.396 178.540,116.815 178.000 C 116.697 177.890,116.382 177.440,116.115 177.000 C 113.793 173.167,109.444 166.400,109.302 166.400 C 109.204 166.400,109.622 167.255,110.231 168.300 M130.800 180.302 C 130.800 180.522,131.070 180.926,131.400 181.200 C 131.735 181.478,132.000 181.521,132.000 181.298 C 132.000 181.078,131.730 180.674,131.400 180.400 C 131.065 180.122,130.800 180.079,130.800 180.302 M135.849 188.100 C 137.950 191.455,139.945 194.470,140.283 194.800 C 140.621 195.130,140.159 194.230,139.256 192.800 C 138.353 191.370,136.486 188.360,135.107 186.111 C 133.728 183.862,132.471 182.017,132.314 182.011 C 132.157 182.005,133.748 184.745,135.849 188.100 M124.470 190.400 C 126.635 193.939,130.111 199.200,130.285 199.200 C 130.399 199.200,130.232 198.795,129.913 198.300 C 129.595 197.805,128.375 195.870,127.201 194.000 C 126.028 192.130,124.796 190.330,124.463 190.000 C 123.932 189.474,123.933 189.523,124.470 190.400 M140.800 195.902 C 140.800 196.122,141.070 196.526,141.400 196.800 C 141.735 197.078,142.000 197.121,142.000 196.898 C 142.000 196.678,141.730 196.274,141.400 196.000 C 141.065 195.722,140.800 195.679,140.800 195.902 M143.131 199.452 C 144.015 201.064,144.907 201.941,144.222 200.525 C 143.883 199.824,143.406 199.128,143.163 198.977 C 142.846 198.781,142.837 198.916,143.131 199.452 M134.211 205.475 C 140.523 215.369,143.043 219.202,143.555 219.693 C 143.846 219.972,142.637 217.950,140.868 215.200 C 139.099 212.450,136.371 208.180,134.806 205.711 C 133.240 203.242,131.788 201.116,131.578 200.986 C 131.368 200.856,132.552 202.876,134.211 205.475 M146.826 205.200 C 147.990 207.070,149.225 209.094,149.571 209.697 C 149.917 210.301,150.329 210.796,150.487 210.797 C 150.823 210.800,146.187 203.283,145.308 202.400 C 144.980 202.070,145.663 203.330,146.826 205.200 M156.826 220.800 C 157.990 222.670,159.225 224.694,159.571 225.297 C 159.917 225.901,160.334 226.396,160.498 226.397 C 160.827 226.400,156.209 218.955,155.289 218.000 C 154.971 217.670,155.663 218.930,156.826 220.800 M149.043 228.469 C 150.070 230.081,151.173 231.670,151.493 232.000 C 151.814 232.330,151.141 231.114,149.997 229.298 C 148.853 227.482,147.751 225.893,147.547 225.767 C 147.343 225.641,148.016 226.857,149.043 228.469 M160.800 226.906 C 160.800 227.553,165.317 234.400,165.740 234.394 C 166.076 234.389,166.079 234.309,165.752 234.094 C 165.505 233.932,164.537 232.540,163.599 231.000 C 161.528 227.596,160.800 226.532,160.800 226.906 M66.300 235.882 C 66.795 235.978,67.605 235.978,68.100 235.882 C 68.595 235.787,68.190 235.709,67.200 235.709 C 66.210 235.709,65.805 235.787,66.300 235.882 M63.189 236.684 C 61.432 237.898,59.994 239.755,60.009 240.789 C 60.014 241.125,60.297 240.834,60.639 240.142 C 61.376 238.648,62.555 237.484,64.200 236.629 C 64.860 236.286,65.125 236.004,64.789 236.002 C 64.453 236.001,63.733 236.308,63.189 236.684 M71.007 237.081 C 71.883 237.676,72.926 238.531,73.324 238.981 C 74.028 239.778,74.030 239.771,73.382 238.707 C 73.017 238.106,72.130 237.251,71.411 236.807 C 69.478 235.612,69.160 235.828,71.007 237.081 M256.886 244.300 L 256.800 249.600 230.627 249.600 C 204.488 249.600,204.454 249.599,204.190 248.770 C 204.046 248.313,203.839 248.028,203.731 248.136 C 203.623 248.243,203.736 248.707,203.982 249.166 C 204.542 250.213,256.626 250.520,257.025 249.478 C 257.136 249.191,257.169 246.716,257.099 243.978 L 256.973 239.000 256.886 244.300 M59.714 243.400 C 59.717 244.500,59.795 244.903,59.887 244.295 C 59.979 243.686,59.977 242.786,59.882 242.295 C 59.787 241.803,59.711 242.300,59.714 243.400 M60.004 246.200 C 60.005 246.420,60.363 247.140,60.800 247.800 C 61.836 249.364,61.837 248.808,60.801 247.110 C 60.362 246.389,60.004 245.980,60.004 246.200 M72.557 248.558 C 71.874 249.241,70.974 250.014,70.557 250.276 C 70.141 250.539,70.002 250.764,70.249 250.776 C 70.793 250.805,74.283 247.755,74.000 247.498 C 73.890 247.398,73.241 247.875,72.557 248.558 M62.006 249.054 C 61.999 249.570,63.964 250.969,64.269 250.664 C 64.379 250.555,64.048 250.243,63.534 249.973 C 63.020 249.702,62.468 249.282,62.306 249.040 C 62.095 248.724,62.011 248.728,62.006 249.054 M65.900 251.089 C 66.615 251.178,67.785 251.178,68.500 251.089 C 69.215 251.001,68.630 250.928,67.200 250.928 C 65.770 250.928,65.185 251.001,65.900 251.089 " stroke="none" fill="#bc9cc4" fill-rule="evenodd"></path><path id="path3" d="M95.823 148.889 C 95.081 149.947,94.863 248.460,95.600 249.600 C 95.851 249.989,95.990 232.380,95.994 199.500 L 96.000 148.800 103.624 148.800 C 108.604 148.800,111.162 148.661,111.000 148.400 C 110.420 147.462,96.508 147.910,95.823 148.889 M165.467 148.501 C 164.826 148.970,164.789 151.687,164.891 190.301 C 164.951 213.016,164.910 231.592,164.800 231.582 C 164.690 231.572,162.530 228.221,160.000 224.135 C 157.470 220.049,155.220 216.495,155.000 216.236 C 154.780 215.978,154.382 215.414,154.115 214.983 C 149.430 207.411,147.751 204.823,147.516 204.813 C 147.247 204.801,149.860 209.004,159.443 224.000 C 161.763 227.630,163.768 230.870,163.898 231.200 C 165.213 234.516,166.001 233.680,165.539 229.459 C 165.351 227.732,165.242 208.922,165.298 187.659 L 165.400 149.000 171.200 149.000 L 177.000 149.000 177.200 198.800 C 177.310 226.190,177.259 248.915,177.086 249.300 C 176.807 249.922,176.006 250.010,169.886 250.090 L 163.000 250.179 169.708 250.299 C 173.901 250.374,176.713 250.260,177.208 249.996 C 178.404 249.356,178.463 149.743,177.269 148.662 C 176.331 147.814,166.589 147.681,165.467 148.501 M203.595 148.805 C 202.505 149.895,202.510 249.319,203.600 250.008 C 204.407 250.518,256.393 250.518,257.200 250.009 C 258.201 249.376,258.272 238.801,257.275 238.800 C 257.124 238.799,257.000 241.274,257.000 244.300 L 257.000 249.800 230.400 249.800 L 203.800 249.800 203.800 199.400 L 203.800 149.000 229.466 149.000 C 249.954 149.000,255.048 148.899,254.717 148.500 C 253.895 147.509,204.597 147.803,203.595 148.805 M266.229 148.629 C 265.716 149.141,265.615 150.157,265.681 154.129 L 265.762 159.000 265.981 154.000 L 266.200 149.000 301.200 149.000 L 336.200 149.000 336.312 154.041 C 336.397 157.921,336.297 159.187,335.877 159.536 C 335.499 159.850,331.039 160.022,321.365 160.095 L 307.400 160.200 307.200 205.000 L 307.000 249.800 301.400 250.017 L 295.800 250.235 301.126 250.317 C 304.203 250.365,306.779 250.225,307.226 249.986 C 307.984 249.580,308.000 248.657,308.000 204.986 L 308.000 160.400 321.626 160.400 C 338.343 160.400,336.800 161.031,336.800 154.200 C 336.800 149.298,336.732 148.792,336.026 148.414 C 334.601 147.651,266.998 147.859,266.229 148.629 M112.180 149.900 C 112.510 150.505,114.720 154.019,117.090 157.709 C 119.461 161.399,123.983 168.476,127.140 173.435 C 130.297 178.395,132.977 182.356,133.096 182.238 C 133.214 182.119,132.868 181.432,132.327 180.711 C 131.535 179.657,123.466 167.072,121.485 163.800 C 121.218 163.360,120.446 162.190,119.769 161.200 C 119.092 160.210,117.052 157.015,115.236 154.100 C 112.236 149.285,110.667 147.128,112.180 149.900 M254.734 159.200 C 254.561 159.718,251.968 159.828,235.767 160.008 L 217.000 160.216 235.600 160.302 C 253.725 160.386,255.494 160.281,255.115 159.146 C 254.969 158.708,254.894 158.719,254.734 159.200 M266.000 159.539 C 266.000 160.379,293.625 160.929,294.138 160.100 C 294.241 159.935,288.308 159.850,280.955 159.910 C 272.085 159.984,267.320 159.878,266.793 159.596 C 266.353 159.361,266.000 159.335,266.000 159.539 M294.895 204.676 C 294.843 229.358,294.935 249.636,295.100 249.738 C 295.372 249.906,295.369 218.677,295.095 176.000 C 295.038 167.090,294.948 179.994,294.895 204.676 M108.006 166.500 C 108.011 167.228,108.086 167.285,108.400 166.800 C 108.901 166.024,108.901 165.600,108.400 165.600 C 108.180 165.600,108.003 166.005,108.006 166.500 M108.867 167.148 C 109.256 168.164,114.247 175.979,114.512 175.989 C 114.684 175.995,114.158 174.965,113.344 173.700 C 112.530 172.435,111.244 170.365,110.485 169.100 C 109.278 167.086,108.469 166.110,108.867 167.148 M107.999 208.800 L 107.800 249.800 102.000 250.017 L 96.200 250.234 101.851 250.317 C 106.204 250.381,107.606 250.275,107.953 249.857 C 108.282 249.460,108.376 238.342,108.301 208.557 L 108.198 167.800 107.999 208.800 M114.800 176.800 C 114.800 177.020,114.935 177.205,115.100 177.211 C 115.265 177.217,116.480 179.012,117.800 181.200 C 119.120 183.388,120.337 185.183,120.505 185.189 C 120.673 185.195,120.327 184.435,119.738 183.500 C 115.299 176.465,114.800 175.787,114.800 176.800 M134.268 184.500 C 134.860 185.435,136.996 188.810,139.013 192.000 C 143.948 199.805,144.908 201.225,145.112 201.022 C 145.207 200.927,144.748 200.073,144.091 199.124 C 142.426 196.719,138.977 191.315,136.170 186.714 C 134.867 184.577,133.663 182.822,133.495 182.814 C 133.327 182.806,133.675 183.565,134.268 184.500 M120.814 185.876 C 120.822 186.054,121.287 186.740,121.847 187.400 L 122.865 188.600 122.235 187.325 C 121.621 186.081,120.786 185.230,120.814 185.876 M122.851 189.044 C 123.271 190.012,126.237 194.366,126.486 194.382 C 126.841 194.404,123.653 189.280,123.099 188.938 C 122.878 188.801,122.766 188.849,122.851 189.044 M251.440 193.106 C 251.682 193.268,251.983 193.670,252.108 194.000 C 252.261 194.401,252.347 194.301,252.368 193.700 C 252.390 193.095,252.170 192.802,251.700 192.806 C 251.268 192.810,251.169 192.925,251.440 193.106 M126.802 195.100 C 126.803 195.265,127.257 195.940,127.810 196.600 L 128.816 197.800 127.968 196.300 C 127.145 194.842,126.798 194.485,126.802 195.100 M252.085 199.300 L 252.000 204.000 234.000 204.000 C 217.112 204.000,216.002 204.043,216.032 204.700 C 216.050 205.118,216.144 205.199,216.265 204.900 C 216.422 204.511,220.397 204.400,234.246 204.400 C 248.564 204.400,252.064 204.298,252.227 203.874 C 252.338 203.585,252.370 201.380,252.299 198.974 L 252.170 194.600 252.085 199.300 M128.800 198.302 C 128.800 198.522,129.070 198.926,129.400 199.200 C 129.735 199.478,130.000 199.521,130.000 199.298 C 130.000 199.078,129.730 198.674,129.400 198.400 C 129.065 198.122,128.800 198.079,128.800 198.302 M130.497 200.900 C 130.773 201.395,131.098 201.890,131.218 202.000 C 131.338 202.110,132.478 203.864,133.752 205.898 C 135.843 209.235,137.820 211.734,136.108 208.875 C 133.500 204.521,130.553 200.027,130.297 200.014 C 130.130 200.006,130.220 200.405,130.497 200.900 M146.063 203.017 C 146.523 203.796,146.986 204.347,147.093 204.240 C 147.283 204.050,145.699 201.600,145.386 201.600 C 145.299 201.600,145.603 202.238,146.063 203.017 M136.800 210.800 C 136.800 211.020,136.935 211.205,137.100 211.211 C 137.265 211.217,138.480 213.012,139.800 215.200 C 141.120 217.388,142.337 219.183,142.505 219.189 C 142.673 219.195,142.327 218.435,141.738 217.500 C 137.299 210.465,136.800 209.787,136.800 210.800 M142.814 219.876 C 142.822 220.054,143.287 220.740,143.847 221.400 L 144.865 222.600 144.235 221.325 C 143.621 220.081,142.786 219.230,142.814 219.876 M145.526 224.021 C 146.024 224.780,146.829 226.074,147.316 226.897 C 147.802 227.720,148.328 228.395,148.486 228.397 C 148.850 228.401,145.651 223.279,145.062 222.915 C 144.820 222.765,145.029 223.263,145.526 224.021 M150.800 232.141 C 150.800 232.313,151.250 233.043,151.800 233.764 C 152.350 234.486,152.800 235.269,152.800 235.504 C 152.800 235.740,152.935 235.993,153.100 236.067 C 153.265 236.140,154.077 237.235,154.904 238.500 C 157.378 242.284,156.961 241.100,154.340 236.900 C 151.947 233.066,150.800 231.524,150.800 232.141 M64.168 235.559 C 55.836 239.343,58.129 252.000,67.147 252.000 C 70.670 252.000,75.246 248.495,75.191 245.839 C 75.186 245.597,74.889 245.994,74.532 246.719 C 71.239 253.400,62.175 252.989,59.812 246.052 C 56.582 236.575,70.101 231.090,74.531 240.080 C 74.889 240.806,75.186 241.169,75.191 240.886 C 75.258 237.121,68.219 233.719,64.168 235.559 M156.800 241.377 C 156.800 241.568,157.250 242.314,157.800 243.036 C 158.350 243.757,158.800 244.539,158.800 244.773 C 158.800 245.008,158.935 245.203,159.100 245.206 C 159.265 245.209,160.030 246.287,160.800 247.600 C 161.570 248.913,162.334 249.991,162.498 249.994 C 162.662 249.997,161.687 248.245,160.332 246.100 C 157.813 242.114,156.800 240.759,156.800 241.377 M75.314 243.400 C 75.317 244.500,75.395 244.903,75.487 244.295 C 75.579 243.686,75.577 242.786,75.482 242.295 C 75.387 241.803,75.311 242.300,75.314 243.400 " stroke="none" fill="#94659c" fill-rule="evenodd"></path><path id="path4" d="M165.384 149.300 C 165.280 149.575,165.240 167.440,165.297 189.000 L 165.400 228.200 165.600 188.500 C 165.710 166.665,165.749 148.800,165.687 148.800 C 165.626 148.800,165.489 149.025,165.384 149.300 M203.785 149.300 C 203.680 149.575,203.641 171.940,203.697 199.000 L 203.800 248.200 204.000 198.500 C 204.110 171.165,204.149 148.800,204.087 148.800 C 204.026 148.800,203.889 149.025,203.785 149.300 M254.798 153.919 L 254.996 159.000 255.111 154.233 C 255.175 151.612,255.086 149.325,254.913 149.152 C 254.741 148.979,254.689 151.124,254.798 153.919 M266.267 149.067 C 265.538 149.796,265.989 159.166,266.774 159.586 C 267.273 159.853,272.279 159.968,280.874 159.910 L 294.200 159.821 280.400 159.597 C 272.810 159.474,266.555 159.335,266.500 159.287 C 266.093 158.934,266.473 149.237,266.900 149.065 C 267.179 148.952,267.209 148.849,266.967 148.832 C 266.728 148.814,266.413 148.920,266.267 149.067 M335.800 154.138 L 335.800 159.400 321.815 159.505 C 314.123 159.563,307.697 159.743,307.534 159.905 C 307.036 160.403,335.270 160.040,335.871 159.541 C 336.451 159.059,336.662 149.410,336.100 149.061 C 335.935 148.959,335.800 151.243,335.800 154.138 M215.783 160.101 C 215.677 160.376,215.638 167.891,215.695 176.801 L 215.800 193.000 233.500 193.006 L 251.200 193.013 233.591 192.902 L 215.983 192.792 216.091 176.196 C 216.151 167.068,216.149 159.600,216.087 159.600 C 216.026 159.600,215.888 159.825,215.783 160.101 M226.128 159.900 C 231.368 159.963,239.828 159.963,244.928 159.900 C 250.027 159.836,245.740 159.785,235.400 159.785 C 225.060 159.785,220.887 159.837,226.128 159.900 M295.393 204.200 C 295.393 228.400,295.441 238.241,295.500 226.069 C 295.559 213.897,295.559 194.097,295.500 182.069 C 295.441 170.041,295.393 180.000,295.393 204.200 M107.491 167.500 C 107.719 171.629,107.930 172.071,107.968 168.500 C 107.989 166.641,108.161 165.600,108.449 165.600 C 108.759 165.600,108.744 165.415,108.400 165.000 C 107.490 163.903,107.319 164.373,107.491 167.500 M215.784 221.600 C 215.784 231.170,215.836 235.085,215.900 230.300 C 215.963 225.515,215.963 217.685,215.900 212.900 C 215.836 208.115,215.784 212.030,215.784 221.600 M226.528 239.100 C 232.208 239.162,241.388 239.162,246.928 239.100 C 252.468 239.037,247.820 238.986,236.600 238.986 C 225.380 238.986,220.848 239.037,226.528 239.100 M59.301 243.400 C 59.305 244.280,59.387 244.593,59.483 244.095 C 59.579 243.598,59.575 242.878,59.475 242.495 C 59.375 242.113,59.296 242.520,59.301 243.400 M66.300 251.482 C 66.795 251.578,67.605 251.578,68.100 251.482 C 68.595 251.387,68.190 251.309,67.200 251.309 C 66.210 251.309,65.805 251.387,66.300 251.482 " stroke="none" fill="#b494bc" fill-rule="evenodd"></path></g></svg>