<svg id="svg" version="1.1" xmlns="http://www.w3.org/2000/svg" xmlns:xlink="http://www.w3.org/1999/xlink" width="400" height="400" viewBox="0, 0, 400,400"><g id="svgg"><path id="path0" d="M185.200 133.192 C 169.129 136.082,157.730 146.021,154.544 159.921 C 154.206 161.394,153.766 163.013,153.565 163.519 C 151.096 169.733,155.149 186.550,160.881 193.878 C 162.875 196.427,163.903 197.480,167.800 200.963 C 170.408 203.294,179.066 208.241,185.306 210.965 C 188.505 212.362,191.905 213.868,192.862 214.311 C 193.818 214.754,196.400 215.883,198.600 216.818 C 209.952 221.646,214.565 226.495,214.565 233.600 C 214.565 245.220,199.897 251.378,184.400 246.264 C 178.966 244.471,172.661 239.151,168.344 232.717 L 167.349 231.233 165.574 232.136 C 163.548 233.167,162.032 234.033,154.132 238.672 C 151.014 240.502,148.357 242.000,148.226 242.000 C 147.528 242.000,145.209 243.896,145.205 244.470 C 145.202 244.839,146.055 246.404,147.100 247.949 C 155.807 260.822,165.799 267.548,181.338 270.998 C 192.651 273.510,210.918 272.104,219.600 268.053 C 230.974 262.746,237.210 255.933,240.703 245.000 C 242.264 240.113,242.283 226.388,240.736 220.982 C 239.150 215.439,238.264 213.765,233.544 207.400 C 232.387 205.839,226.803 200.959,224.443 199.448 C 220.286 196.784,214.844 193.711,212.400 192.647 C 210.970 192.025,208.450 190.882,206.800 190.107 C 205.150 189.333,202.270 188.081,200.400 187.326 C 185.149 181.170,180.580 176.891,180.618 168.800 C 180.686 154.146,202.592 151.699,210.648 165.446 C 212.301 168.267,212.675 168.300,216.270 165.942 C 217.991 164.813,220.030 163.492,220.800 163.008 C 221.570 162.524,224.000 160.955,226.200 159.523 C 228.400 158.091,230.875 156.518,231.700 156.027 C 233.814 154.770,233.702 153.656,231.100 150.011 C 221.130 136.047,204.073 129.797,185.200 133.192 M309.963 134.900 C 309.307 135.615,307.614 137.820,306.200 139.800 C 304.787 141.780,303.164 143.934,302.594 144.586 C 302.025 145.239,301.172 146.409,300.700 147.186 C 300.228 147.964,299.736 148.690,299.606 148.800 C 299.382 148.989,298.110 150.650,293.972 156.160 C 292.998 157.457,291.165 159.887,289.900 161.558 C 288.635 163.229,287.599 164.687,287.598 164.798 C 287.597 164.909,287.096 165.540,286.484 166.200 C 285.872 166.860,284.241 168.930,282.860 170.800 C 281.479 172.670,279.775 174.938,279.074 175.840 C 278.373 176.743,277.530 177.883,277.200 178.375 C 276.870 178.867,275.368 180.919,273.861 182.935 C 272.355 184.951,270.399 187.815,269.516 189.300 C 268.632 190.785,267.794 192.001,267.654 192.003 C 267.514 192.005,267.195 192.410,266.944 192.903 C 266.693 193.396,265.142 196.443,263.499 199.674 C 258.442 209.614,257.011 215.508,257.009 226.400 C 257.008 234.566,257.139 235.446,259.301 241.800 C 262.442 251.034,270.978 260.801,280.322 265.853 C 284.647 268.191,286.614 269.150,287.140 269.175 C 287.436 269.189,288.246 269.456,288.940 269.769 C 290.696 270.561,294.347 271.551,298.165 272.269 C 299.944 272.604,302.210 273.030,303.200 273.215 C 316.622 275.730,339.655 269.926,348.631 261.767 C 349.494 260.983,350.789 259.880,351.508 259.317 C 352.228 258.753,353.745 257.101,354.878 255.646 C 356.012 254.191,357.134 252.816,357.370 252.591 C 358.386 251.624,361.439 245.735,362.549 242.600 C 367.982 227.263,365.432 208.598,356.486 198.211 C 354.005 195.330,350.722 192.000,350.364 192.000 C 350.195 192.000,349.819 191.775,349.529 191.500 C 341.875 184.260,321.584 179.985,310.295 183.233 C 308.703 183.691,307.085 184.162,306.700 184.280 C 305.486 184.650,305.811 182.616,307.100 181.772 C 308.858 180.622,316.221 173.304,317.465 171.472 C 318.563 169.855,318.795 169.546,319.927 168.202 C 320.507 167.513,331.669 152.760,336.053 146.888 C 337.578 144.846,339.107 142.866,339.451 142.488 C 340.496 141.340,345.590 134.221,345.595 133.900 C 345.598 133.735,337.850 133.600,328.377 133.600 L 311.155 133.600 309.963 134.900 M40.652 134.900 C 40.336 136.081,40.327 268.943,40.643 269.767 C 41.015 270.737,132.585 270.737,132.957 269.767 C 133.272 268.946,133.264 248.479,132.948 247.300 L 132.707 246.400 100.815 246.400 C 70.428 246.400,68.893 246.366,68.262 245.669 C 67.288 244.593,67.252 214.675,68.223 213.289 L 68.845 212.400 95.343 212.400 C 115.418 212.400,121.956 212.284,122.320 211.920 C 123.048 211.192,123.000 190.264,122.269 189.657 C 121.898 189.349,113.808 189.184,95.289 189.108 C 74.230 189.022,68.734 188.894,68.320 188.480 C 67.491 187.650,67.567 158.918,68.400 158.391 C 68.764 158.161,80.967 158.010,99.457 158.006 C 126.858 158.001,129.939 157.936,130.157 157.367 C 130.474 156.542,130.474 135.458,130.157 134.633 C 129.938 134.061,125.623 134.000,85.404 134.000 L 40.893 134.000 40.652 134.900 M319.355 205.922 C 336.544 212.168,338.136 236.865,321.857 244.747 C 310.249 250.368,298.023 246.849,291.072 235.889 C 288.858 232.399,288.142 224.040,289.642 219.200 C 293.046 208.217,307.677 201.679,319.355 205.922 " stroke="none" fill="#363634" fill-rule="evenodd"></path><path id="path1" d="M0.000 200.000 L 0.000 400.000 200.000 400.000 L 400.000 400.000 400.000 200.000 L 400.000 0.000 200.000 0.000 L 0.000 0.000 0.000 200.000 M207.278 132.189 C 208.225 132.518,209.367 132.791,209.815 132.794 C 210.264 132.797,211.337 133.160,212.200 133.600 C 213.063 134.040,214.069 134.400,214.436 134.400 C 214.802 134.400,215.311 134.652,215.567 134.961 C 215.823 135.269,216.519 135.643,217.112 135.792 C 217.706 135.941,218.284 136.193,218.396 136.351 C 218.508 136.509,219.500 137.158,220.600 137.793 C 223.315 139.361,228.961 144.534,230.400 146.774 C 230.730 147.287,231.298 147.998,231.662 148.354 C 235.660 152.260,235.913 156.283,232.235 157.452 C 231.814 157.586,230.284 158.539,228.835 159.570 C 227.386 160.602,225.930 161.571,225.600 161.725 C 225.270 161.879,223.920 162.722,222.600 163.598 C 221.280 164.475,219.833 165.355,219.384 165.554 C 218.935 165.753,218.327 166.205,218.035 166.558 C 217.742 166.911,217.353 167.200,217.171 167.200 C 216.989 167.200,216.040 167.740,215.062 168.400 C 212.849 169.893,211.822 169.918,210.914 168.500 C 210.527 167.895,209.983 167.162,209.705 166.871 C 209.427 166.581,209.200 166.178,209.200 165.976 C 209.200 165.774,208.885 165.225,208.500 164.756 C 201.119 155.755,188.540 155.289,182.957 163.809 C 181.665 165.781,181.860 172.559,183.268 174.629 C 184.847 176.952,186.556 178.800,187.125 178.800 C 187.400 178.800,187.724 179.057,187.845 179.372 C 187.965 179.687,188.545 180.134,189.132 180.366 C 189.719 180.598,190.470 180.943,190.800 181.131 C 192.237 181.952,193.132 182.412,195.200 183.391 C 196.410 183.964,197.910 184.696,198.532 185.016 C 199.155 185.337,199.856 185.600,200.089 185.600 C 200.497 185.600,201.402 185.990,206.600 188.407 C 207.920 189.021,210.080 190.006,211.400 190.597 C 216.155 192.726,220.921 195.256,222.031 196.240 C 222.379 196.548,222.778 196.800,222.919 196.800 C 223.489 196.800,228.267 200.320,230.055 202.058 C 231.107 203.080,232.384 204.250,232.894 204.658 C 233.760 205.352,237.308 209.759,238.200 211.250 C 239.579 213.553,240.800 216.175,240.800 216.833 C 240.800 217.255,240.972 217.600,241.182 217.600 C 241.392 217.600,241.681 218.275,241.824 219.100 C 241.967 219.925,242.426 221.939,242.842 223.575 C 244.429 229.805,243.360 245.600,241.206 247.754 C 240.983 247.977,240.800 248.490,240.800 248.893 C 240.800 249.613,239.099 253.272,238.355 254.153 C 238.148 254.399,237.398 255.430,236.689 256.444 C 235.980 257.458,234.858 258.898,234.196 259.644 C 231.928 262.198,225.443 267.200,224.400 267.200 C 224.200 267.200,223.372 267.651,222.560 268.201 C 221.749 268.752,220.346 269.413,219.442 269.671 C 218.539 269.929,217.575 270.311,217.299 270.520 C 216.730 270.951,212.959 271.878,209.400 272.461 C 208.080 272.678,206.010 273.067,204.800 273.327 C 201.961 273.937,189.265 273.935,186.400 273.324 C 185.190 273.066,183.120 272.674,181.800 272.454 C 177.869 271.797,174.253 270.962,173.400 270.514 C 172.960 270.283,171.520 269.682,170.200 269.178 C 168.880 268.675,167.656 268.024,167.480 267.732 C 167.304 267.439,166.896 267.200,166.573 267.200 C 165.754 267.200,162.000 265.195,162.000 264.758 C 162.000 264.561,161.763 264.400,161.472 264.400 C 160.289 264.400,153.115 258.281,150.402 254.957 C 148.402 252.506,146.800 250.394,146.800 250.208 C 146.800 250.089,146.170 249.095,145.400 248.000 C 143.052 244.660,143.478 242.545,146.800 241.049 C 148.443 240.309,151.504 238.594,153.898 237.072 C 154.833 236.478,156.543 235.478,157.698 234.849 C 158.854 234.221,160.430 233.324,161.200 232.857 C 161.970 232.389,162.870 231.885,163.200 231.735 C 163.530 231.586,164.229 231.134,164.754 230.732 C 166.414 229.458,168.189 229.761,169.251 231.500 C 169.754 232.325,170.366 233.180,170.610 233.400 C 170.854 233.620,171.851 234.789,172.827 235.997 C 175.100 238.814,176.498 240.122,179.101 241.869 C 180.256 242.644,181.302 243.441,181.424 243.639 C 181.547 243.838,182.014 244.000,182.462 244.000 C 182.910 244.000,183.754 244.257,184.338 244.572 C 189.369 247.283,200.337 247.289,205.262 244.583 C 205.846 244.262,206.604 244.000,206.946 244.000 C 207.615 244.000,210.800 240.988,210.800 240.356 C 210.800 240.146,211.059 239.876,211.376 239.754 C 211.692 239.633,212.066 239.010,212.206 238.371 C 212.347 237.732,212.628 237.106,212.831 236.981 C 213.304 236.688,213.317 230.519,212.844 230.227 C 212.649 230.106,212.371 229.540,212.228 228.970 C 212.085 228.399,211.750 227.655,211.484 227.316 C 209.740 225.098,207.447 223.109,205.200 221.863 C 201.706 219.926,196.220 217.200,195.815 217.200 C 195.635 217.200,194.658 216.820,193.644 216.354 C 187.787 213.669,184.642 212.255,181.200 210.760 C 179.149 209.870,174.908 207.512,172.462 205.901 C 171.878 205.517,170.905 205.004,170.300 204.762 C 169.695 204.520,169.200 204.154,169.200 203.948 C 169.200 203.743,168.918 203.467,168.574 203.335 C 167.271 202.835,161.927 197.768,160.206 195.400 C 159.566 194.520,158.881 193.689,158.685 193.554 C 158.250 193.255,157.588 192.098,156.191 189.200 C 155.608 187.990,154.876 186.490,154.565 185.868 C 154.254 185.245,154.000 184.480,154.000 184.169 C 154.000 183.858,153.659 182.567,153.242 181.302 C 151.403 175.719,151.273 164.881,152.985 159.800 C 153.282 158.920,153.637 157.660,153.776 157.000 C 153.914 156.340,154.272 155.260,154.571 154.600 C 156.462 150.421,156.873 149.637,157.406 149.195 C 157.733 148.924,158.000 148.518,158.000 148.292 C 158.000 147.745,160.645 144.515,162.396 142.924 C 165.807 139.825,167.018 138.801,167.271 138.800 C 167.421 138.800,167.781 138.565,168.071 138.278 C 168.655 137.701,171.242 136.241,172.800 135.608 C 173.350 135.385,174.070 135.037,174.400 134.835 C 175.611 134.094,179.173 132.800,180.000 132.800 C 180.469 132.800,181.234 132.596,181.701 132.346 C 184.015 131.107,203.824 130.985,207.278 132.189 M347.213 133.034 C 347.429 133.602,347.477 134.277,347.321 134.534 C 347.033 135.005,346.959 135.101,345.668 136.675 C 345.273 137.156,344.601 138.038,344.175 138.636 C 343.749 139.233,343.085 140.054,342.700 140.461 C 342.315 140.867,342.000 141.304,342.000 141.430 C 342.000 141.827,338.626 146.000,338.305 146.000 C 338.137 146.000,338.000 146.188,338.000 146.417 C 338.000 146.910,335.380 150.516,333.629 152.432 C 332.953 153.173,332.400 153.923,332.400 154.101 C 332.400 154.519,329.223 158.559,328.756 158.733 C 328.560 158.807,328.400 159.041,328.400 159.255 C 328.400 159.468,327.455 160.851,326.300 162.329 C 325.145 163.806,323.763 165.641,323.230 166.407 C 322.696 167.173,322.021 167.944,321.730 168.120 C 321.438 168.296,321.200 168.611,321.200 168.820 C 321.200 169.029,320.885 169.530,320.500 169.934 C 320.115 170.338,319.530 171.083,319.200 171.590 C 318.199 173.128,317.033 174.443,313.430 178.100 C 309.605 181.982,309.610 181.994,314.646 180.952 C 319.079 180.036,331.340 180.887,334.600 182.337 C 336.509 183.187,339.854 184.400,340.286 184.400 C 344.255 184.400,357.427 195.428,360.444 201.277 C 362.983 206.198,364.400 209.358,364.400 210.098 C 364.400 210.396,364.579 210.819,364.798 211.038 C 365.294 211.534,366.271 216.546,366.882 221.728 C 367.483 226.828,366.395 237.297,364.969 240.132 C 364.656 240.755,364.400 241.537,364.400 241.871 C 364.400 242.204,364.155 242.954,363.855 243.538 C 363.556 244.122,362.533 246.220,361.582 248.200 C 360.631 250.180,359.742 251.890,359.606 252.000 C 359.470 252.110,358.753 253.055,358.012 254.100 C 357.271 255.145,356.515 256.000,356.332 256.000 C 356.149 256.000,356.000 256.238,356.000 256.529 C 356.000 256.820,354.629 258.305,352.954 259.829 C 351.278 261.353,349.610 262.870,349.247 263.200 C 348.527 263.854,346.667 265.127,345.400 265.831 C 344.960 266.076,343.970 266.662,343.200 267.133 C 341.897 267.931,339.026 269.342,336.200 270.573 C 334.426 271.347,330.824 272.487,329.000 272.853 C 328.120 273.029,325.240 273.638,322.600 274.204 C 315.703 275.685,306.635 275.683,300.000 274.200 C 297.470 273.634,294.623 273.001,293.674 272.793 C 291.617 272.342,288.267 271.276,286.600 270.542 C 285.940 270.252,284.770 269.746,284.000 269.419 C 283.230 269.092,281.520 268.197,280.200 267.430 C 278.880 266.663,277.395 265.852,276.900 265.627 C 276.405 265.403,276.000 265.035,276.000 264.810 C 276.000 264.584,275.828 264.400,275.618 264.400 C 275.197 264.400,272.797 262.836,271.870 261.958 C 267.321 257.646,265.966 256.205,264.143 253.740 C 262.964 252.147,262.000 250.759,262.000 250.656 C 262.000 250.554,261.370 249.513,260.600 248.344 C 259.830 247.175,259.194 245.944,259.187 245.609 C 259.180 245.274,258.910 244.651,258.587 244.224 C 258.264 243.796,258.000 243.113,258.000 242.704 C 258.000 242.295,257.706 241.392,257.347 240.697 C 256.987 240.002,256.552 238.436,256.380 237.217 C 256.208 235.997,255.877 234.280,255.643 233.400 C 255.113 231.401,255.101 221.618,255.625 219.200 C 255.840 218.210,256.184 216.207,256.390 214.750 C 256.597 213.292,257.033 211.492,257.361 210.750 C 257.688 210.007,258.064 208.725,258.196 207.900 C 258.328 207.075,258.608 206.400,258.818 206.400 C 259.028 206.400,259.200 206.062,259.200 205.648 C 259.200 204.921,261.091 200.405,261.566 200.000 C 261.695 199.890,262.514 198.360,263.387 196.600 C 264.260 194.840,265.565 192.547,266.287 191.504 C 267.009 190.461,267.600 189.515,267.600 189.400 C 267.600 189.285,268.230 188.294,269.000 187.196 C 269.770 186.098,271.051 184.255,271.846 183.100 C 272.641 181.945,273.496 180.820,273.746 180.600 C 273.996 180.380,274.740 179.390,275.400 178.400 C 276.990 176.016,277.196 175.747,278.600 174.243 C 279.260 173.536,280.038 172.505,280.329 171.951 C 280.620 171.398,282.645 168.640,284.829 165.823 C 287.013 163.005,288.800 160.588,288.800 160.450 C 288.800 160.313,289.385 159.538,290.100 158.729 C 290.815 157.921,291.670 156.868,292.000 156.390 C 293.463 154.272,295.613 151.350,296.113 150.800 C 296.413 150.470,297.186 149.480,297.830 148.600 C 298.473 147.720,299.135 146.940,299.300 146.867 C 299.465 146.793,299.600 146.552,299.600 146.331 C 299.600 146.110,300.781 144.460,302.225 142.665 C 303.669 140.869,305.409 138.545,306.092 137.500 C 306.776 136.455,307.484 135.600,307.667 135.600 C 307.850 135.600,308.000 135.408,308.000 135.173 C 308.000 134.938,308.655 134.128,309.456 133.373 L 310.912 132.000 328.866 132.000 L 346.820 132.000 347.213 133.034 M131.158 133.362 C 131.978 134.104,132.000 134.435,132.000 146.033 L 132.000 157.942 130.946 158.771 C 129.901 159.593,129.635 159.600,100.026 159.600 C 77.330 159.600,70.045 159.715,69.680 160.080 C 68.993 160.767,68.993 186.433,69.680 187.120 C 70.044 187.484,76.582 187.600,96.657 187.600 L 123.155 187.600 123.777 188.489 C 124.887 190.073,124.691 212.013,123.558 213.038 C 122.753 213.767,121.559 213.809,96.058 214.000 L 69.400 214.200 69.285 228.400 C 69.221 236.210,69.274 243.185,69.403 243.900 L 69.636 245.200 101.487 245.200 C 130.562 245.200,133.401 245.258,134.069 245.862 C 135.135 246.828,135.199 269.696,134.138 270.869 C 133.072 272.047,40.245 272.005,39.614 270.826 C 38.959 269.602,39.044 134.355,39.700 133.505 C 40.486 132.486,39.891 132.498,86.258 132.550 C 128.985 132.598,130.342 132.623,131.158 133.362 M306.400 206.450 C 305.850 206.670,304.557 207.031,303.526 207.252 C 302.495 207.474,301.438 207.913,301.177 208.228 C 300.916 208.542,300.553 208.800,300.371 208.800 C 299.001 208.800,295.056 212.541,292.991 215.800 C 290.665 219.469,290.673 219.433,290.654 226.000 L 290.635 232.200 291.910 234.200 C 292.612 235.300,293.350 236.560,293.550 237.000 C 294.421 238.913,300.419 244.000,301.803 244.000 C 302.153 244.000,302.988 244.283,303.658 244.630 C 306.861 246.286,317.634 245.619,321.200 243.544 C 321.530 243.352,322.056 243.075,322.369 242.928 C 323.033 242.617,323.470 242.264,326.308 239.746 C 327.467 238.717,328.522 237.451,328.653 236.933 C 328.783 236.414,329.105 235.857,329.369 235.695 C 331.446 234.419,332.362 223.941,330.788 219.463 C 329.371 215.429,325.322 210.000,323.732 210.000 C 323.440 210.000,323.200 209.865,323.200 209.699 C 323.200 207.566,309.998 205.013,306.400 206.450 " stroke="none" fill="#fbdc34" fill-rule="evenodd"></path><path id="path2" d="M188.200 131.839 C 171.069 134.335,159.269 142.985,154.694 156.400 C 152.801 161.951,152.600 163.272,152.622 170.000 C 152.644 176.804,152.783 177.680,154.903 184.400 C 157.288 191.964,164.550 200.607,172.276 205.079 C 173.721 205.916,175.375 206.905,175.952 207.278 C 177.363 208.190,181.968 210.446,185.400 211.906 C 186.940 212.561,189.190 213.559,190.400 214.124 C 191.610 214.689,193.770 215.626,195.200 216.207 C 198.324 217.476,202.803 219.673,205.000 221.014 C 205.880 221.552,206.974 222.157,207.430 222.359 C 212.455 224.586,215.492 233.861,212.806 238.782 C 209.609 244.641,204.491 247.002,195.000 246.996 C 183.488 246.989,177.099 243.327,168.666 231.900 C 167.271 230.009,167.460 229.986,163.017 232.600 C 160.961 233.810,159.161 234.800,159.018 234.800 C 158.874 234.800,157.371 235.679,155.678 236.753 C 151.677 239.291,149.330 240.653,147.600 241.440 C 144.388 242.901,143.827 244.170,145.286 246.677 C 149.576 254.054,158.059 262.395,164.600 265.668 C 165.260 265.998,167.060 266.910,168.600 267.694 C 182.468 274.752,208.966 274.827,221.774 267.846 C 226.553 265.241,227.422 264.716,229.000 263.482 C 231.718 261.357,234.300 258.790,235.462 257.057 C 236.073 256.146,237.061 254.761,237.657 253.980 C 238.253 253.198,239.228 251.308,239.823 249.780 C 240.417 248.251,241.058 246.640,241.246 246.200 C 241.435 245.760,241.774 244.320,241.999 243.000 C 246.278 217.987,237.429 203.386,210.400 190.860 C 204.476 188.114,203.722 187.780,200.800 186.600 C 196.766 184.971,195.541 184.420,193.600 183.364 C 192.610 182.825,190.811 181.893,189.603 181.292 C 176.051 174.557,179.610 157.200,194.543 157.200 C 201.122 157.200,206.358 160.183,210.103 166.064 C 212.159 169.295,213.005 169.400,216.396 166.850 C 217.163 166.272,219.954 164.450,222.598 162.800 C 225.242 161.150,227.854 159.470,228.403 159.067 C 228.951 158.664,230.525 157.633,231.900 156.777 C 235.390 154.604,235.232 153.856,229.889 147.242 C 225.364 141.641,222.863 139.615,215.800 135.830 C 210.227 132.844,195.711 130.745,188.200 131.839 M203.800 133.187 C 215.783 135.125,224.156 140.285,231.100 150.011 C 233.702 153.656,233.814 154.770,231.700 156.027 C 230.875 156.518,228.400 158.091,226.200 159.523 C 224.000 160.955,221.570 162.524,220.800 163.008 C 220.030 163.492,217.991 164.813,216.270 165.942 C 212.675 168.300,212.301 168.267,210.648 165.446 C 204.183 154.414,187.380 153.232,181.552 163.400 C 180.305 165.576,180.194 171.742,181.357 174.200 C 183.621 178.982,189.122 182.774,200.400 187.326 C 202.270 188.081,205.150 189.333,206.800 190.107 C 208.450 190.882,210.970 192.025,212.400 192.647 C 214.844 193.711,220.286 196.784,224.443 199.448 C 226.803 200.959,232.387 205.839,233.544 207.400 C 234.034 208.060,235.153 209.586,236.031 210.791 C 244.194 221.990,244.156 243.075,235.952 254.995 C 228.998 265.097,217.604 270.739,201.505 272.050 C 180.589 273.753,161.804 266.822,151.169 253.479 C 148.075 249.597,145.199 245.253,145.205 244.470 C 145.209 243.896,147.528 242.000,148.226 242.000 C 148.357 242.000,151.014 240.502,154.132 238.672 C 162.032 234.033,163.548 233.167,165.574 232.136 L 167.349 231.233 168.344 232.717 C 172.661 239.151,178.966 244.471,184.400 246.264 C 199.897 251.378,214.565 245.220,214.565 233.600 C 214.565 226.495,209.952 221.646,198.600 216.818 C 196.400 215.883,193.818 214.754,192.862 214.311 C 191.905 213.868,188.505 212.362,185.306 210.965 C 179.066 208.241,170.408 203.294,167.800 200.963 C 163.903 197.480,162.875 196.427,160.881 193.878 C 157.420 189.454,155.640 185.289,153.838 177.400 C 153.131 174.308,152.950 165.068,153.565 163.519 C 153.766 163.013,154.206 161.394,154.544 159.921 C 159.000 140.480,179.637 129.278,203.800 133.187 M309.563 134.100 C 308.907 134.815,307.204 137.020,305.779 139.000 C 303.250 142.513,298.862 148.400,297.878 149.600 C 297.607 149.930,294.697 153.800,291.411 158.200 C 288.125 162.600,285.315 166.290,285.167 166.400 C 285.019 166.510,283.841 168.054,282.549 169.831 C 279.975 173.371,277.298 176.976,274.170 181.114 C 268.660 188.403,260.560 202.296,259.426 206.400 C 259.274 206.950,258.996 207.760,258.807 208.200 C 255.145 216.749,255.260 234.554,259.035 243.600 C 263.122 253.391,271.361 262.010,282.138 267.767 C 295.081 274.682,316.987 276.518,330.400 271.813 C 331.170 271.542,333.060 270.907,334.600 270.401 C 339.040 268.942,345.898 265.105,349.614 262.000 C 366.919 247.544,371.377 222.790,360.337 202.472 C 358.494 199.080,353.309 193.112,350.364 190.994 C 350.054 190.771,348.900 189.938,347.800 189.143 C 346.700 188.348,344.810 187.210,343.600 186.616 C 342.390 186.021,341.124 185.392,340.787 185.218 C 340.450 185.044,339.550 184.768,338.787 184.605 C 338.024 184.441,337.216 184.160,336.991 183.980 C 334.447 181.945,317.689 180.779,310.966 182.169 C 309.266 182.521,307.783 182.716,307.671 182.604 C 307.559 182.492,307.767 182.400,308.133 182.400 C 308.500 182.400,308.800 182.230,308.800 182.022 C 308.800 181.814,310.436 180.059,312.436 178.122 C 314.435 176.185,317.300 172.980,318.801 171.000 C 320.303 169.020,324.262 163.800,327.599 159.400 C 330.936 155.000,335.156 149.420,336.977 147.000 C 338.798 144.580,340.628 142.202,341.044 141.715 C 344.455 137.724,346.874 133.971,346.402 133.402 C 345.971 132.883,343.494 132.800,328.328 132.800 L 310.755 132.800 309.563 134.100 M40.480 133.680 C 39.646 134.514,39.798 270.637,40.633 270.957 C 41.711 271.371,132.541 271.225,133.200 270.808 C 133.712 270.485,133.800 268.657,133.800 258.400 C 133.800 248.143,133.712 246.315,133.200 245.992 C 132.835 245.761,120.265 245.610,101.133 245.606 C 83.826 245.603,69.381 245.491,69.033 245.357 C 68.204 245.039,68.057 214.503,68.880 213.680 C 69.244 213.316,75.692 213.200,95.454 213.200 C 111.440 213.200,121.945 213.049,122.574 212.810 L 123.600 212.420 123.600 200.824 C 123.600 189.769,123.564 189.209,122.826 188.814 C 122.316 188.541,113.149 188.400,95.855 188.400 C 72.572 188.400,69.587 188.330,69.029 187.771 C 68.206 186.949,68.066 160.094,68.880 159.280 C 69.245 158.915,76.616 158.799,99.580 158.794 C 117.903 158.790,130.036 158.639,130.400 158.409 C 131.140 157.942,131.526 136.110,130.827 134.271 L 130.420 133.200 85.690 133.200 C 51.433 133.200,40.848 133.312,40.480 133.680 M345.595 133.900 C 345.590 134.221,340.496 141.340,339.451 142.488 C 339.107 142.866,337.578 144.846,336.053 146.888 C 331.669 152.760,320.507 167.513,319.927 168.202 C 318.795 169.546,318.563 169.855,317.465 171.472 C 316.221 173.304,308.858 180.622,307.100 181.772 C 305.811 182.616,305.486 184.650,306.700 184.280 C 316.686 181.232,327.223 181.504,337.600 185.076 C 342.951 186.918,346.977 189.087,349.529 191.500 C 349.819 191.775,350.195 192.000,350.364 192.000 C 350.532 192.000,351.589 192.945,352.712 194.100 C 365.239 206.983,368.853 224.803,362.549 242.600 C 361.439 245.735,358.386 251.624,357.370 252.591 C 357.134 252.816,356.012 254.191,354.878 255.646 C 353.745 257.101,352.228 258.753,351.508 259.317 C 350.789 259.880,349.494 260.983,348.631 261.767 C 339.655 269.926,316.622 275.730,303.200 273.215 C 302.210 273.030,299.944 272.604,298.165 272.269 C 294.347 271.551,290.696 270.561,288.940 269.769 C 288.246 269.456,287.436 269.189,287.140 269.175 C 286.614 269.150,284.647 268.191,280.322 265.853 C 269.115 259.794,261.486 249.976,257.747 236.800 C 255.033 227.239,257.467 211.531,263.499 199.674 C 265.142 196.443,266.693 193.396,266.944 192.903 C 267.195 192.410,267.514 192.005,267.654 192.003 C 267.794 192.001,268.632 190.785,269.516 189.300 C 270.399 187.815,272.355 184.951,273.861 182.935 C 275.368 180.919,276.870 178.867,277.200 178.375 C 277.530 177.883,278.373 176.743,279.074 175.840 C 279.775 174.938,281.479 172.670,282.860 170.800 C 284.241 168.930,285.872 166.860,286.484 166.200 C 287.096 165.540,287.597 164.909,287.598 164.798 C 287.599 164.687,288.635 163.229,289.900 161.558 C 291.165 159.887,292.998 157.457,293.972 156.160 C 298.110 150.650,299.382 148.989,299.606 148.800 C 299.736 148.690,300.228 147.964,300.700 147.186 C 301.172 146.409,302.025 145.239,302.594 144.586 C 303.164 143.934,304.787 141.780,306.200 139.800 C 307.614 137.820,309.307 135.615,309.963 134.900 L 311.155 133.600 328.377 133.600 C 337.850 133.600,345.598 133.735,345.595 133.900 M130.157 134.633 C 130.474 135.458,130.474 156.542,130.157 157.367 C 129.939 157.936,126.858 158.001,99.457 158.006 C 80.967 158.010,68.764 158.161,68.400 158.391 C 67.567 158.918,67.491 187.650,68.320 188.480 C 68.734 188.894,74.230 189.022,95.289 189.108 C 113.808 189.184,121.898 189.349,122.269 189.657 C 123.000 190.264,123.048 211.192,122.320 211.920 C 121.956 212.284,115.418 212.400,95.343 212.400 L 68.845 212.400 68.223 213.289 C 67.252 214.675,67.288 244.593,68.262 245.669 C 68.893 246.366,70.428 246.400,100.815 246.400 L 132.707 246.400 132.948 247.300 C 133.264 248.479,133.272 268.946,132.957 269.767 C 132.585 270.737,41.015 270.737,40.643 269.767 C 40.327 268.943,40.336 136.081,40.652 134.900 L 40.893 134.000 85.404 134.000 C 125.623 134.000,129.938 134.061,130.157 134.633 M304.494 205.380 C 299.440 206.667,294.376 210.633,291.187 215.800 C 288.102 220.799,288.043 231.113,291.072 235.889 C 296.103 243.823,302.152 247.200,311.329 247.200 C 332.935 247.200,341.527 220.427,323.832 208.240 C 319.376 205.171,310.481 203.856,304.494 205.380 M316.600 205.978 C 320.174 206.745,323.455 208.569,326.778 211.638 C 328.527 213.253,328.920 213.815,330.515 217.000 C 332.825 221.609,333.026 229.213,330.960 233.860 C 330.652 234.554,330.400 235.244,330.400 235.395 C 330.400 235.545,329.742 236.598,328.937 237.734 C 318.980 251.791,294.343 247.862,290.257 231.567 C 286.255 215.612,299.869 202.388,316.600 205.978 " stroke="none" fill="#ae9c34" fill-rule="evenodd"></path><path id="path3" d="M191.318 131.498 C 193.033 131.573,195.733 131.572,197.318 131.497 C 198.903 131.421,197.500 131.359,194.200 131.360 C 190.900 131.361,189.603 131.422,191.318 131.498 M182.400 132.088 C 180.166 132.751,181.552 132.849,184.400 132.229 C 186.656 131.738,186.788 131.664,185.400 131.668 C 184.520 131.670,183.170 131.859,182.400 132.088 M204.800 132.234 C 206.230 132.548,207.670 132.746,208.000 132.674 C 208.985 132.457,205.530 131.602,203.800 131.634 C 202.356 131.661,202.454 131.719,204.800 132.234 M309.456 133.373 C 308.655 134.128,308.000 134.938,308.000 135.173 C 308.000 135.408,307.850 135.600,307.667 135.600 C 307.484 135.600,306.776 136.455,306.092 137.500 C 305.409 138.545,303.669 140.869,302.225 142.665 C 300.781 144.460,299.600 146.110,299.600 146.331 C 299.600 146.552,299.465 146.793,299.300 146.867 C 299.135 146.940,298.473 147.720,297.830 148.600 C 297.186 149.480,296.413 150.470,296.113 150.800 C 295.613 151.350,293.463 154.272,292.000 156.390 C 291.670 156.868,290.815 157.921,290.100 158.729 C 289.385 159.538,288.800 160.313,288.800 160.450 C 288.800 160.588,287.013 163.005,284.829 165.823 C 282.645 168.640,280.620 171.398,280.329 171.951 C 280.038 172.505,279.260 173.536,278.600 174.243 C 277.196 175.747,276.990 176.016,275.400 178.400 C 274.740 179.390,273.996 180.380,273.746 180.600 C 273.496 180.820,272.641 181.945,271.846 183.100 C 271.051 184.255,269.770 186.098,269.000 187.196 C 268.230 188.294,267.600 189.285,267.600 189.400 C 267.600 189.515,267.012 190.461,266.292 191.504 C 264.726 193.775,261.875 199.209,262.121 199.455 C 262.217 199.551,263.065 198.150,264.005 196.343 C 266.291 191.950,275.959 177.785,279.097 174.231 C 279.664 173.588,280.936 171.878,281.922 170.431 C 282.909 168.984,283.829 167.710,283.968 167.600 C 284.288 167.346,287.207 163.580,288.000 162.399 C 289.377 160.347,293.291 155.390,293.631 155.267 C 293.834 155.193,294.000 154.956,294.000 154.740 C 294.000 154.389,295.291 152.513,296.716 150.794 C 296.999 150.451,300.059 146.402,303.516 141.794 C 306.972 137.187,310.250 133.191,310.800 132.914 C 312.092 132.265,344.827 132.172,346.026 132.814 C 347.068 133.372,346.999 134.355,345.817 135.800 C 344.865 136.962,344.560 137.353,342.778 139.700 C 342.318 140.305,342.129 140.800,342.357 140.800 C 342.585 140.800,342.987 140.399,343.249 139.908 C 343.512 139.418,343.923 138.818,344.163 138.574 C 344.403 138.331,344.960 137.638,345.400 137.034 C 345.840 136.429,346.515 135.562,346.900 135.106 C 347.724 134.131,347.697 134.308,347.210 133.026 L 346.820 132.000 328.866 132.000 L 310.912 132.000 309.456 133.373 M63.731 132.700 C 75.793 132.759,95.413 132.759,107.331 132.700 C 119.249 132.641,109.380 132.593,85.400 132.593 C 61.420 132.593,51.669 132.641,63.731 132.700 M39.614 133.574 C 39.036 134.653,39.036 269.747,39.614 270.826 C 40.245 272.005,133.072 272.047,134.138 270.869 C 135.199 269.696,135.135 246.828,134.069 245.862 C 133.401 245.258,130.562 245.200,101.487 245.200 L 69.636 245.200 69.403 243.900 C 69.274 243.185,69.221 236.210,69.285 228.400 L 69.400 214.200 96.058 214.000 C 121.559 213.809,122.753 213.767,123.558 213.038 C 124.691 212.013,124.887 190.073,123.777 188.489 L 123.155 187.600 96.657 187.600 C 76.582 187.600,70.044 187.484,69.680 187.120 C 68.993 186.433,68.993 160.767,69.680 160.080 C 70.045 159.715,77.330 159.600,100.026 159.600 C 129.635 159.600,129.901 159.593,130.946 158.771 L 132.000 157.942 132.000 146.033 C 132.000 133.406,131.805 132.174,129.923 132.927 C 129.565 133.071,129.607 133.147,130.057 133.168 C 130.419 133.186,130.824 133.485,130.957 133.833 C 131.448 135.111,131.228 157.812,130.720 158.320 C 130.355 158.685,122.987 158.800,100.000 158.800 C 77.013 158.800,69.645 158.915,69.280 159.280 C 68.867 159.693,68.498 187.327,68.900 187.690 C 68.955 187.740,81.120 187.875,95.932 187.990 C 122.003 188.193,122.883 188.225,123.432 188.976 C 124.403 190.305,124.255 211.645,123.269 212.538 C 122.604 213.140,120.162 213.200,96.442 213.200 C 79.219 213.200,70.084 213.341,69.574 213.614 C 68.486 214.196,68.349 244.942,69.433 245.357 C 69.781 245.491,84.235 245.600,101.553 245.600 C 125.509 245.600,133.155 245.715,133.520 246.080 C 134.028 246.588,134.248 269.289,133.757 270.567 C 133.437 271.401,40.912 271.552,40.080 270.720 C 39.300 269.940,39.397 135.399,40.179 133.900 C 40.494 133.295,40.590 132.800,40.390 132.800 C 40.191 132.800,39.842 133.148,39.614 133.574 M177.400 133.578 C 175.312 134.566,176.021 134.577,178.800 133.600 C 180.246 133.091,180.657 132.825,180.000 132.824 C 179.450 132.822,178.280 133.162,177.400 133.578 M209.400 133.086 C 209.840 133.192,210.791 133.555,211.514 133.892 C 212.237 134.229,212.940 134.394,213.076 134.258 C 213.426 133.907,210.608 132.791,209.513 132.846 C 208.698 132.888,208.686 132.913,209.400 133.086 M174.000 135.000 C 173.726 135.330,173.298 135.600,173.048 135.600 C 172.445 135.600,168.783 137.560,168.089 138.253 C 167.789 138.554,167.421 138.800,167.271 138.800 C 167.018 138.801,165.807 139.825,162.396 142.924 C 160.645 144.515,158.000 147.745,158.000 148.292 C 158.000 148.518,157.733 148.924,157.406 149.195 C 156.655 149.818,154.988 153.121,155.278 153.411 C 155.398 153.531,155.797 152.992,156.166 152.214 C 158.160 148.012,163.321 142.031,167.222 139.401 C 168.200 138.742,169.090 138.111,169.200 137.999 C 169.310 137.887,170.795 137.097,172.500 136.243 C 174.205 135.389,175.600 134.625,175.600 134.545 C 175.600 134.145,174.435 134.476,174.000 135.000 M214.400 134.812 C 214.730 135.032,216.080 135.769,217.400 136.448 C 224.273 139.988,234.800 150.917,234.800 154.514 C 234.800 155.065,232.395 157.200,231.774 157.200 C 231.621 157.200,230.664 157.789,229.648 158.509 C 228.631 159.230,225.640 161.150,223.000 162.777 C 218.201 165.735,216.234 167.200,217.062 167.200 C 217.304 167.200,217.742 166.911,218.035 166.558 C 218.327 166.205,218.935 165.753,219.384 165.554 C 219.833 165.355,221.280 164.475,222.600 163.598 C 223.920 162.722,225.270 161.879,225.600 161.725 C 225.930 161.571,227.386 160.602,228.835 159.570 C 230.284 158.539,231.814 157.586,232.235 157.452 C 235.913 156.283,235.660 152.260,231.662 148.354 C 231.298 147.998,230.730 147.287,230.400 146.774 C 228.961 144.534,223.315 139.361,220.600 137.793 C 219.500 137.158,218.508 136.509,218.396 136.351 C 218.284 136.193,217.706 135.941,217.112 135.792 C 216.519 135.643,215.823 135.269,215.567 134.961 C 215.311 134.652,214.809 134.403,214.451 134.406 C 213.884 134.411,213.877 134.464,214.400 134.812 M339.682 143.773 C 338.551 145.184,337.294 146.884,336.889 147.550 C 336.484 148.216,335.298 149.804,334.252 151.080 C 333.207 152.356,330.540 155.830,328.324 158.800 C 322.909 166.059,322.737 166.284,321.676 167.522 C 321.168 168.115,320.122 169.535,319.352 170.678 C 317.736 173.076,311.037 180.072,309.689 180.769 C 308.485 181.392,308.926 182.014,310.524 181.946 C 311.437 181.907,311.548 181.842,310.916 181.720 C 310.136 181.569,310.434 181.140,313.455 178.074 C 317.034 174.442,318.200 173.126,319.200 171.590 C 319.530 171.083,320.115 170.338,320.500 169.934 C 320.885 169.530,321.200 169.029,321.200 168.820 C 321.200 168.611,321.438 168.296,321.730 168.120 C 322.021 167.944,322.696 167.173,323.230 166.407 C 323.763 165.641,325.145 163.806,326.300 162.329 C 327.455 160.851,328.400 159.468,328.400 159.255 C 328.400 159.041,328.560 158.807,328.756 158.733 C 329.223 158.559,332.400 154.519,332.400 154.101 C 332.400 153.923,332.953 153.173,333.629 152.432 C 335.380 150.516,338.000 146.910,338.000 146.417 C 338.000 146.188,338.137 146.000,338.305 146.000 C 338.706 146.000,342.137 141.603,341.912 141.379 C 341.817 141.283,340.813 142.361,339.682 143.773 M154.526 154.747 C 154.267 155.162,153.924 156.199,153.765 157.051 C 153.605 157.903,153.233 159.179,152.937 159.887 C 152.642 160.595,152.421 161.765,152.446 162.487 L 152.492 163.800 152.820 162.400 C 153.680 158.734,154.336 156.468,154.773 155.651 C 155.377 154.521,155.161 153.730,154.526 154.747 M191.000 157.572 C 179.340 160.887,177.864 173.879,188.409 180.368 C 190.630 181.734,191.145 181.898,190.400 181.000 C 190.126 180.670,189.652 180.400,189.347 180.400 C 189.042 180.400,188.484 180.040,188.107 179.600 C 187.730 179.160,187.243 178.800,187.023 178.800 C 186.545 178.800,184.744 176.799,183.268 174.629 C 181.860 172.559,181.665 165.781,182.957 163.809 C 188.540 155.289,201.119 155.755,208.500 164.756 C 208.885 165.225,209.200 165.774,209.200 165.976 C 209.200 166.178,209.427 166.581,209.705 166.871 C 209.983 167.162,210.527 167.895,210.914 168.500 C 211.302 169.105,211.978 169.600,212.417 169.600 C 213.318 169.600,216.594 167.660,216.259 167.326 C 216.140 167.206,215.558 167.489,214.967 167.954 C 213.123 169.405,211.766 169.092,210.390 166.900 C 205.824 159.627,197.632 155.686,191.000 157.572 M151.783 167.040 C 151.627 168.712,151.675 171.367,151.891 172.940 C 152.268 175.681,152.286 175.555,152.342 169.900 C 152.406 163.380,152.217 162.412,151.783 167.040 M152.454 177.615 C 152.425 178.394,152.754 180.014,153.186 181.215 C 154.084 183.714,154.304 182.543,153.430 179.914 C 153.117 178.971,152.781 177.750,152.685 177.200 C 152.550 176.435,152.496 176.532,152.454 177.615 M314.448 180.945 C 312.593 181.337,313.499 181.400,321.003 181.402 C 329.014 181.403,329.489 181.365,326.954 180.926 C 323.527 180.333,317.299 180.342,314.448 180.945 M191.233 181.758 C 191.966 182.450,195.789 184.399,196.147 184.263 C 196.396 184.168,195.752 183.705,194.717 183.234 C 193.681 182.763,192.725 182.202,192.593 181.989 C 192.461 181.775,192.063 181.600,191.710 181.600 C 191.356 181.600,191.142 181.671,191.233 181.758 M332.200 182.194 C 334.584 182.898,335.104 182.944,334.564 182.404 C 334.346 182.186,333.275 181.917,332.184 181.805 L 330.200 181.603 332.200 182.194 M336.600 183.600 C 337.480 184.007,338.470 184.339,338.800 184.338 C 339.130 184.336,338.680 183.995,337.800 183.578 C 336.920 183.162,335.930 182.830,335.600 182.840 C 335.270 182.851,335.720 183.193,336.600 183.600 M154.027 184.200 C 154.026 184.640,154.290 185.349,154.613 185.776 C 155.392 186.807,155.383 185.769,154.600 184.400 C 154.095 183.516,154.028 183.493,154.027 184.200 M197.411 184.946 C 197.845 185.246,198.650 185.621,199.200 185.778 C 199.750 185.935,200.740 186.300,201.400 186.590 C 207.493 189.260,209.270 190.071,213.800 192.245 C 215.560 193.089,217.160 193.853,217.356 193.942 C 217.551 194.031,217.595 193.916,217.453 193.687 C 217.196 193.271,215.951 192.635,211.400 190.597 C 210.080 190.006,207.920 189.021,206.600 188.407 C 201.308 185.946,200.491 185.599,199.956 185.587 C 199.650 185.580,199.051 185.310,198.624 184.987 C 198.196 184.664,197.571 184.400,197.235 184.400 C 196.771 184.400,196.813 184.533,197.411 184.946 M340.800 185.064 C 346.536 187.711,349.976 190.037,353.717 193.800 C 355.029 195.120,356.315 196.470,356.575 196.800 C 359.787 200.880,360.602 202.289,363.745 209.200 C 364.095 209.970,364.386 210.365,364.391 210.078 C 364.403 209.365,362.984 206.199,360.444 201.277 C 357.333 195.246,344.183 184.354,340.078 184.409 C 339.705 184.414,340.030 184.709,340.800 185.064 M155.200 187.100 C 155.200 187.339,155.695 188.468,156.300 189.608 C 157.941 192.702,158.293 193.284,158.685 193.554 C 158.881 193.689,159.566 194.520,160.206 195.400 C 161.927 197.768,167.271 202.835,168.574 203.335 C 168.918 203.467,169.200 203.743,169.200 203.948 C 169.200 204.154,169.695 204.525,170.300 204.773 C 171.450 205.245,171.873 205.490,174.765 207.354 C 177.095 208.857,182.620 211.603,183.279 211.587 C 183.566 211.580,182.180 210.765,180.200 209.775 C 178.220 208.786,176.128 207.666,175.552 207.288 C 174.975 206.910,173.316 205.913,171.865 205.073 C 166.249 201.823,159.881 195.270,156.956 189.732 C 155.359 186.709,155.200 186.470,155.200 187.100 M218.000 194.174 C 218.000 194.270,219.987 195.546,222.416 197.010 C 226.662 199.568,229.312 201.691,233.191 205.644 C 235.148 207.638,235.216 207.723,236.999 210.400 C 237.658 211.390,238.313 212.290,238.453 212.400 C 238.594 212.510,239.172 213.680,239.738 215.000 C 240.304 216.320,240.775 217.100,240.784 216.733 C 240.798 216.160,239.535 213.480,238.200 211.250 C 237.308 209.759,233.760 205.352,232.894 204.658 C 232.384 204.250,231.107 203.080,230.055 202.058 C 228.436 200.485,223.508 196.800,223.022 196.800 C 222.938 196.800,221.913 196.170,220.744 195.400 C 218.760 194.093,218.000 193.754,218.000 194.174 M260.289 202.500 C 259.690 203.875,259.205 205.270,259.211 205.600 C 259.217 205.930,259.726 205.077,260.341 203.704 C 260.956 202.331,261.581 201.086,261.729 200.937 C 262.096 200.570,262.072 200.000,261.689 200.000 C 261.518 200.000,260.888 201.125,260.289 202.500 M304.200 206.586 C 302.570 207.332,304.068 207.344,306.000 206.600 C 307.228 206.127,307.277 206.059,306.400 206.048 C 305.850 206.042,304.860 206.283,304.200 206.586 M317.197 206.827 C 319.943 207.636,323.200 209.194,323.200 209.699 C 323.200 209.865,323.435 210.000,323.723 210.000 C 325.280 210.000,329.346 215.508,330.958 219.800 C 331.389 220.949,331.565 221.146,331.579 220.501 C 331.640 217.864,327.628 212.070,324.006 209.565 C 321.239 207.651,317.266 205.980,315.600 206.031 C 315.022 206.048,315.697 206.385,317.197 206.827 M258.252 207.300 C 257.807 208.960,258.026 209.413,258.616 208.054 C 259.301 206.477,259.311 206.400,258.847 206.400 C 258.652 206.400,258.385 206.805,258.252 207.300 M298.601 209.300 C 295.367 211.444,290.442 217.594,290.914 218.898 C 291.015 219.179,291.334 218.872,291.638 218.200 C 293.440 214.222,297.000 210.347,300.400 208.665 C 302.153 207.798,302.951 207.211,302.384 207.206 C 302.045 207.203,300.342 208.145,298.601 209.300 M257.236 211.080 C 256.965 211.675,256.660 213.071,256.559 214.181 C 256.385 216.096,256.417 216.047,257.187 213.232 C 258.042 210.106,258.061 209.270,257.236 211.080 M364.400 211.440 C 364.400 211.880,364.563 212.411,364.761 212.620 C 364.960 212.829,365.224 213.360,365.349 213.800 C 365.473 214.240,365.497 213.896,365.402 213.035 C 365.215 211.338,364.400 210.041,364.400 211.440 M184.168 211.948 C 184.286 212.139,184.972 212.520,185.691 212.794 C 186.411 213.069,188.080 213.792,189.400 214.401 C 194.800 216.894,195.502 217.200,195.815 217.200 C 196.220 217.200,201.706 219.926,205.200 221.863 C 207.749 223.276,210.867 226.013,211.281 227.200 C 211.396 227.530,211.645 227.655,211.834 227.478 C 212.023 227.301,211.994 227.032,211.769 226.878 C 211.545 226.725,210.966 226.033,210.482 225.340 C 209.084 223.338,201.371 218.846,194.800 216.208 C 191.980 215.076,192.051 215.107,187.491 213.022 C 184.194 211.514,183.826 211.395,184.168 211.948 M365.776 217.000 C 365.882 218.100,366.163 220.503,366.402 222.341 C 366.709 224.706,366.712 226.691,366.414 229.141 C 366.183 231.043,365.902 233.500,365.791 234.600 L 365.588 236.600 366.260 234.400 C 367.215 231.272,367.213 220.320,366.258 217.200 L 365.584 215.000 365.776 217.000 M255.726 218.259 C 255.167 220.901,255.323 233.683,255.925 234.600 C 256.386 235.303,256.421 235.181,256.212 233.600 C 255.592 228.915,255.519 224.823,255.988 221.137 C 256.497 217.147,256.335 215.377,255.726 218.259 M240.806 217.700 C 240.848 218.394,241.968 220.786,241.977 220.200 C 241.995 218.997,241.553 217.600,241.153 217.600 C 240.959 217.600,240.803 217.645,240.806 217.700 M290.091 221.712 C 289.478 224.347,289.488 227.576,290.117 230.266 C 290.561 232.163,290.600 231.813,290.600 225.966 C 290.600 222.465,290.596 219.600,290.591 219.600 C 290.586 219.600,290.361 220.550,290.091 221.712 M242.027 221.800 C 242.012 222.240,242.267 223.860,242.593 225.400 C 243.391 229.166,243.378 237.258,242.569 240.815 C 242.223 242.339,242.003 243.905,242.080 244.293 C 242.663 247.201,243.664 238.296,243.492 231.731 C 243.336 225.765,242.161 217.799,242.027 221.800 M331.698 226.000 C 331.702 230.396,331.719 230.490,332.084 228.115 C 332.328 226.530,332.326 224.865,332.080 223.515 C 331.733 221.611,331.695 221.859,331.698 226.000 M212.215 228.800 C 212.366 229.350,212.650 229.971,212.845 230.180 C 213.316 230.684,213.304 236.689,212.831 236.981 C 212.628 237.106,212.343 237.747,212.199 238.405 C 212.055 239.062,211.765 239.600,211.556 239.600 C 211.346 239.600,211.060 239.899,210.920 240.265 C 210.780 240.630,210.032 241.527,209.258 242.257 C 208.484 242.987,207.951 243.684,208.074 243.807 C 208.413 244.146,211.800 240.229,212.758 238.392 C 213.957 236.090,213.962 230.733,212.767 229.000 C 211.997 227.884,211.959 227.870,212.215 228.800 M164.754 230.732 C 164.229 231.134,163.530 231.592,163.200 231.748 C 162.870 231.904,162.240 232.254,161.800 232.525 C 161.360 232.797,160.580 233.254,160.066 233.542 C 159.552 233.829,159.212 234.145,159.311 234.244 C 159.526 234.460,165.097 231.290,165.420 230.767 C 166.077 229.705,167.890 230.436,169.224 232.300 C 172.556 236.957,179.890 244.000,181.407 244.000 C 181.949 244.000,181.082 243.199,179.101 241.869 C 176.498 240.122,175.100 238.814,172.827 235.997 C 171.851 234.789,170.854 233.620,170.610 233.400 C 170.366 233.180,169.754 232.325,169.251 231.500 C 168.189 229.761,166.414 229.458,164.754 230.732 M330.608 233.100 C 330.191 234.475,329.705 235.600,329.530 235.600 C 329.354 235.600,328.965 236.185,328.664 236.900 C 328.194 238.018,327.116 239.126,323.500 242.204 C 323.115 242.532,322.642 242.800,322.449 242.800 C 322.256 242.800,321.874 243.070,321.600 243.400 C 320.833 244.325,321.488 244.116,323.328 242.849 C 325.511 241.345,328.408 238.603,328.994 237.485 C 329.249 236.998,329.661 236.240,329.910 235.800 C 330.962 233.936,331.658 232.000,331.518 231.324 C 331.434 230.919,331.033 231.702,330.608 233.100 M290.824 233.251 C 290.811 233.609,291.070 234.126,291.400 234.400 C 291.730 234.674,292.000 235.049,292.000 235.234 C 292.000 236.768,299.881 244.653,300.648 243.886 C 300.757 243.776,300.085 243.172,299.154 242.543 C 297.402 241.361,293.600 237.657,293.600 237.133 C 293.600 236.969,293.195 236.220,292.700 235.467 C 292.205 234.715,291.586 233.762,291.324 233.350 C 290.920 232.715,290.843 232.700,290.824 233.251 M155.400 236.176 C 152.448 238.024,149.657 239.605,147.000 240.932 C 145.113 241.875,144.000 242.765,144.000 243.332 C 144.000 243.556,144.407 243.357,144.905 242.889 C 145.403 242.421,146.438 241.754,147.205 241.406 C 147.972 241.059,149.140 240.423,149.800 239.993 C 150.460 239.563,151.423 239.027,151.940 238.800 C 152.458 238.574,153.826 237.761,154.982 236.995 C 156.137 236.228,157.212 235.600,157.370 235.600 C 157.528 235.600,157.927 235.330,158.257 235.000 C 159.309 233.948,158.282 234.371,155.400 236.176 M256.445 237.200 C 256.432 237.970,256.778 239.320,257.215 240.200 C 258.021 241.823,257.997 241.556,256.999 237.800 C 256.498 235.912,256.467 235.878,256.445 237.200 M364.883 238.812 C 364.598 239.740,364.449 240.582,364.550 240.684 C 364.915 241.048,365.647 239.140,365.525 238.143 C 365.418 237.270,365.327 237.365,364.883 238.812 M363.728 242.297 C 363.470 242.904,363.003 244.030,362.691 244.800 C 361.255 248.343,359.676 251.199,357.881 253.500 C 356.809 254.875,356.096 256.000,356.298 256.000 C 356.499 256.000,357.271 255.145,358.012 254.100 C 358.753 253.055,359.470 252.110,359.606 252.000 C 359.819 251.828,360.669 250.124,363.918 243.366 C 364.244 242.687,364.440 241.921,364.354 241.663 C 364.268 241.405,363.987 241.690,363.728 242.297 M258.014 242.624 C 258.006 243.076,258.264 243.796,258.587 244.224 C 258.910 244.651,259.180 245.274,259.187 245.609 C 259.194 245.944,259.830 247.175,260.600 248.344 C 261.370 249.513,262.000 250.554,262.000 250.656 C 262.000 250.759,262.964 252.147,264.143 253.740 C 265.966 256.205,267.321 257.646,271.870 261.958 C 272.833 262.870,275.281 264.452,275.457 264.276 C 275.548 264.186,274.671 263.394,273.511 262.515 C 271.089 260.683,265.200 254.979,265.200 254.466 C 265.200 254.277,264.825 253.690,264.367 253.162 C 263.390 252.036,259.606 245.848,259.586 245.344 C 259.552 244.477,258.027 241.838,258.014 242.624 M182.400 244.403 C 183.538 245.145,189.671 246.846,190.734 246.715 C 191.436 246.629,190.707 246.342,188.600 245.876 C 186.840 245.487,184.922 244.905,184.338 244.584 C 183.100 243.903,181.387 243.743,182.400 244.403 M205.389 244.541 C 204.955 244.838,203.250 245.418,201.600 245.830 C 199.763 246.288,198.953 246.633,199.510 246.718 C 200.441 246.861,204.855 245.541,206.748 244.554 C 207.654 244.081,207.688 244.005,206.989 244.002 C 206.543 244.001,205.823 244.243,205.389 244.541 M302.342 244.651 C 306.596 246.508,316.297 246.459,319.931 244.563 C 320.715 244.154,320.808 244.004,320.280 244.002 C 319.884 244.001,318.984 244.312,318.280 244.693 C 317.228 245.263,315.932 245.386,311.000 245.386 C 306.068 245.386,304.772 245.263,303.720 244.693 C 303.016 244.312,302.116 244.015,301.720 244.033 C 301.272 244.053,301.507 244.286,302.342 244.651 M144.000 245.307 C 144.000 245.693,144.630 246.905,145.400 248.000 C 146.170 249.095,146.800 250.089,146.800 250.208 C 146.800 250.394,148.402 252.506,150.402 254.957 C 152.956 258.085,160.277 264.400,161.350 264.400 C 161.573 264.400,161.135 263.949,160.378 263.398 C 155.983 260.203,152.214 256.554,149.226 252.600 C 147.896 250.840,146.646 249.204,146.448 248.964 C 146.249 248.723,145.618 247.645,145.044 246.567 C 144.470 245.489,144.000 244.922,144.000 245.307 M241.307 246.432 C 241.036 247.156,240.886 247.820,240.975 247.908 C 241.260 248.193,242.055 246.378,241.925 245.738 C 241.851 245.372,241.598 245.657,241.307 246.432 M194.500 247.076 C 194.885 247.176,195.515 247.176,195.900 247.076 C 196.285 246.975,195.970 246.893,195.200 246.893 C 194.430 246.893,194.115 246.975,194.500 247.076 M239.799 250.548 C 239.392 251.613,238.866 252.690,238.630 252.942 C 238.393 253.194,237.542 254.407,236.737 255.638 C 235.378 257.717,229.412 264.000,228.796 264.000 C 228.646 264.000,228.107 264.360,227.600 264.800 C 227.093 265.240,226.480 265.604,226.239 265.609 C 225.621 265.621,223.694 267.180,224.282 267.191 C 225.416 267.212,231.772 262.374,234.196 259.644 C 234.858 258.898,235.980 257.458,236.689 256.444 C 237.398 255.430,238.148 254.399,238.355 254.153 C 239.131 253.234,240.840 249.520,240.692 249.075 C 240.607 248.821,240.205 249.484,239.799 250.548 M353.897 258.300 C 352.887 259.345,351.695 260.479,351.248 260.820 C 350.801 261.160,349.835 261.985,349.102 262.653 C 348.368 263.321,346.425 264.642,344.784 265.589 C 343.143 266.537,341.530 267.530,341.200 267.796 C 340.870 268.063,339.520 268.711,338.200 269.236 C 334.650 270.650,333.634 271.195,334.538 271.198 C 334.944 271.199,335.754 270.938,336.338 270.617 C 336.922 270.297,338.390 269.575,339.600 269.013 C 340.810 268.450,342.430 267.605,343.200 267.133 C 343.970 266.662,344.960 266.076,345.400 265.831 C 347.760 264.518,349.743 262.922,353.751 259.112 C 355.074 257.853,356.061 256.728,355.945 256.611 C 355.828 256.495,354.907 257.255,353.897 258.300 M162.000 264.809 C 162.000 265.209,165.961 267.281,166.422 267.122 C 166.616 267.055,165.701 266.438,164.388 265.751 C 163.074 265.064,162.000 264.640,162.000 264.809 M276.000 264.822 C 276.000 265.041,276.405 265.403,276.900 265.627 C 277.395 265.852,278.880 266.663,280.200 267.430 C 281.520 268.197,283.230 269.092,284.000 269.419 C 284.770 269.746,285.970 270.301,286.666 270.652 C 287.362 271.002,288.158 271.214,288.435 271.122 C 288.711 271.030,288.322 270.714,287.569 270.420 C 284.127 269.079,281.600 267.861,281.600 267.545 C 281.600 267.355,281.375 267.200,281.100 267.199 C 280.825 267.198,279.565 266.574,278.300 265.811 C 277.035 265.048,276.000 264.603,276.000 264.822 M167.432 267.738 C 167.533 268.004,168.738 268.643,170.108 269.159 C 171.479 269.675,173.147 270.365,173.816 270.694 C 174.484 271.022,175.384 271.222,175.816 271.137 C 176.301 271.042,175.532 270.632,173.800 270.062 C 172.260 269.555,170.156 268.717,169.123 268.199 C 168.091 267.680,167.330 267.473,167.432 267.738 M222.596 267.606 C 221.947 268.656,212.363 271.766,207.800 272.407 C 205.848 272.681,205.839 272.688,207.400 272.734 C 208.280 272.760,209.720 272.594,210.600 272.365 C 211.480 272.136,213.190 271.721,214.400 271.443 C 215.610 271.165,216.960 270.742,217.400 270.504 C 217.840 270.266,219.052 269.771,220.093 269.405 C 222.003 268.733,224.207 267.238,223.324 267.213 C 223.062 267.206,222.734 267.383,222.596 267.606 M177.800 271.615 C 181.256 272.575,182.339 272.777,183.800 272.738 C 185.250 272.699,185.193 272.666,183.200 272.381 C 181.990 272.208,180.371 271.871,179.603 271.633 C 178.834 271.395,177.844 271.218,177.403 271.241 C 176.854 271.269,176.980 271.387,177.800 271.615 M290.356 271.820 C 291.102 272.144,292.452 272.491,293.356 272.591 C 294.260 272.691,294.640 272.679,294.200 272.563 C 293.760 272.447,292.721 272.093,291.892 271.776 C 289.915 271.021,288.602 271.059,290.356 271.820 M331.107 271.775 C 330.505 272.089,329.515 272.421,328.907 272.513 L 327.800 272.680 329.000 272.718 C 329.660 272.738,331.010 272.415,332.000 272.000 C 333.069 271.552,333.475 271.237,333.000 271.225 C 332.560 271.214,331.708 271.462,331.107 271.775 M186.400 273.262 C 187.788 273.898,203.443 273.900,204.800 273.265 C 205.603 272.890,205.129 272.857,202.400 273.099 C 198.091 273.481,193.587 273.482,189.000 273.102 C 186.162 272.867,185.612 272.901,186.400 273.262 M295.600 273.126 C 299.871 275.789,322.584 275.820,327.200 273.169 C 328.079 272.664,326.770 272.679,325.429 273.189 C 321.168 274.809,307.415 275.163,300.600 273.827 C 294.994 272.729,294.955 272.723,295.600 273.126 " stroke="none" fill="#cfb834" fill-rule="evenodd"></path><path id="path4" d="M187.300 131.876 C 187.685 131.976,188.315 131.976,188.700 131.876 C 189.085 131.775,188.770 131.693,188.000 131.693 C 187.230 131.693,186.915 131.775,187.300 131.876 M200.305 131.883 C 200.802 131.979,201.522 131.975,201.905 131.875 C 202.287 131.775,201.880 131.696,201.000 131.701 C 200.120 131.705,199.807 131.787,200.305 131.883 M320.127 132.700 C 324.927 132.764,332.667 132.763,337.327 132.699 C 341.987 132.636,338.060 132.583,328.600 132.583 C 319.140 132.583,315.327 132.636,320.127 132.700 M40.349 133.500 C 39.863 134.120,39.873 134.143,40.439 133.702 C 40.938 133.312,50.770 133.181,85.439 133.100 L 129.800 132.996 85.349 132.898 C 43.423 132.806,40.867 132.840,40.349 133.500 M39.795 202.600 C 39.795 240.000,39.842 255.359,39.900 236.732 C 39.957 218.104,39.957 187.504,39.900 168.732 C 39.842 149.959,39.795 165.200,39.795 202.600 M335.599 148.900 C 335.010 149.704,334.913 149.984,335.345 149.633 C 336.001 149.100,336.993 147.600,336.689 147.600 C 336.613 147.600,336.122 148.185,335.599 148.900 M234.446 154.220 C 234.421 154.671,234.221 155.257,234.001 155.521 C 233.782 155.786,233.890 155.753,234.240 155.449 C 234.590 155.144,234.790 154.558,234.685 154.147 C 234.512 153.474,234.488 153.481,234.446 154.220 M228.522 159.029 L 227.400 160.058 228.700 159.154 C 229.415 158.657,230.000 158.193,230.000 158.125 C 230.000 157.809,229.558 158.080,228.522 159.029 M68.844 159.347 C 68.519 159.738,68.421 163.824,68.500 173.647 L 68.611 187.400 68.705 173.580 C 68.775 163.474,68.929 159.631,69.280 159.280 C 69.544 159.016,69.656 158.800,69.529 158.800 C 69.402 158.800,69.094 159.046,68.844 159.347 M185.178 160.300 L 183.800 161.800 185.300 160.422 C 186.125 159.663,186.800 158.988,186.800 158.922 C 186.800 158.616,186.462 158.904,185.178 160.300 M324.400 163.600 C 323.930 164.260,323.636 164.800,323.746 164.800 C 323.856 164.800,324.330 164.260,324.800 163.600 C 325.270 162.940,325.564 162.400,325.454 162.400 C 325.344 162.400,324.870 162.940,324.400 163.600 M152.493 175.200 C 152.493 175.970,152.575 176.285,152.676 175.900 C 152.776 175.515,152.776 174.885,152.676 174.500 C 152.575 174.115,152.493 174.430,152.493 175.200 M184.800 177.800 C 185.546 178.570,186.247 179.200,186.357 179.200 C 186.467 179.200,185.946 178.570,185.200 177.800 C 184.454 177.030,183.753 176.400,183.643 176.400 C 183.533 176.400,184.054 177.030,184.800 177.800 M311.578 179.100 L 310.200 180.600 311.700 179.222 C 313.096 177.938,313.384 177.600,313.078 177.600 C 313.012 177.600,312.337 178.275,311.578 179.100 M318.117 181.497 C 319.611 181.574,321.951 181.574,323.317 181.496 C 324.682 181.418,323.460 181.355,320.600 181.355 C 317.740 181.356,316.622 181.420,318.117 181.497 M308.800 182.055 C 308.800 182.245,308.500 182.400,308.133 182.400 C 307.767 182.400,307.559 182.493,307.673 182.606 C 307.786 182.720,308.581 182.663,309.440 182.480 C 310.925 182.164,310.947 182.137,309.900 181.929 C 309.295 181.809,308.800 181.866,308.800 182.055 M69.338 188.094 C 69.592 188.256,81.590 188.350,96.000 188.303 C 110.410 188.257,118.870 188.170,114.800 188.111 C 96.135 187.839,68.920 187.828,69.338 188.094 M123.776 200.800 C 123.776 207.070,123.832 209.635,123.899 206.500 C 123.967 203.365,123.967 198.235,123.899 195.100 C 123.832 191.965,123.776 194.530,123.776 200.800 M353.400 193.600 C 354.483 194.700,355.460 195.600,355.570 195.600 C 355.680 195.600,354.883 194.700,353.800 193.600 C 352.717 192.500,351.740 191.600,351.630 191.600 C 351.520 191.600,352.317 192.500,353.400 193.600 M162.000 196.925 C 162.000 196.994,162.585 197.579,163.300 198.225 L 164.600 199.400 163.425 198.100 C 162.330 196.888,162.000 196.616,162.000 196.925 M224.600 198.607 C 225.040 198.966,225.760 199.435,226.200 199.651 L 227.000 200.044 226.200 199.393 C 225.760 199.034,225.040 198.565,224.600 198.349 L 223.800 197.956 224.600 198.607 M166.000 200.525 C 166.000 200.594,166.585 201.179,167.300 201.825 L 168.600 203.000 167.425 201.700 C 166.330 200.488,166.000 200.216,166.000 200.525 M307.907 205.890 C 308.626 205.979,309.706 205.977,310.307 205.886 C 310.908 205.795,310.320 205.722,309.000 205.724 C 307.680 205.726,307.188 205.801,307.907 205.890 M313.100 205.882 C 313.595 205.978,314.405 205.978,314.900 205.882 C 315.395 205.787,314.990 205.709,314.000 205.709 C 313.010 205.709,312.605 205.787,313.100 205.882 M68.844 213.747 C 68.519 214.139,68.421 218.692,68.500 229.847 L 68.610 245.400 68.705 229.720 C 68.793 215.267,68.855 214.008,69.500 213.632 C 69.885 213.408,69.997 213.219,69.749 213.212 C 69.501 213.205,69.094 213.446,68.844 213.747 M255.748 226.400 C 255.748 228.710,255.814 229.655,255.895 228.500 C 255.976 227.345,255.976 225.455,255.895 224.300 C 255.814 223.145,255.748 224.090,255.748 226.400 M366.514 225.800 C 366.517 226.900,366.595 227.303,366.687 226.695 C 366.779 226.086,366.777 225.186,366.682 224.695 C 366.587 224.203,366.511 224.700,366.514 225.800 M213.728 233.600 C 213.728 235.030,213.801 235.615,213.889 234.900 C 213.978 234.185,213.978 233.015,213.889 232.300 C 213.801 231.585,213.728 232.170,213.728 233.600 M242.901 237.400 C 242.905 238.280,242.987 238.593,243.083 238.095 C 243.179 237.598,243.175 236.878,243.075 236.495 C 242.975 236.113,242.896 236.520,242.901 237.400 M174.687 239.209 C 175.395 239.951,176.042 240.478,176.125 240.379 C 176.208 240.281,175.629 239.673,174.838 239.029 L 173.400 237.858 174.687 239.209 M144.827 242.971 C 144.325 243.506,144.009 244.181,144.126 244.471 C 144.289 244.882,144.344 244.871,144.368 244.426 C 144.386 244.110,144.791 243.435,145.270 242.926 C 145.748 242.417,146.049 242.000,145.939 242.000 C 145.829 242.000,145.329 242.437,144.827 242.971 M309.511 246.293 C 310.451 246.378,311.891 246.377,312.711 246.291 C 313.530 246.205,312.760 246.136,311.000 246.137 C 309.240 246.139,308.570 246.209,309.511 246.293 M191.500 247.082 C 191.995 247.178,192.805 247.178,193.300 247.082 C 193.795 246.987,193.390 246.909,192.400 246.909 C 191.410 246.909,191.005 246.987,191.500 247.082 M197.100 247.082 C 197.595 247.178,198.405 247.178,198.900 247.082 C 199.395 246.987,198.990 246.909,198.000 246.909 C 197.010 246.909,196.605 246.987,197.100 247.082 M358.487 252.244 C 357.765 253.210,357.255 254.000,357.354 254.000 C 357.637 254.000,360.113 250.779,359.948 250.626 C 359.867 250.550,359.209 251.278,358.487 252.244 M151.200 255.325 C 151.200 255.394,151.785 255.979,152.500 256.625 L 153.800 257.800 152.625 256.500 C 151.530 255.288,151.200 255.016,151.200 255.325 M181.000 272.000 C 181.440 272.189,182.070 272.344,182.400 272.344 C 182.778 272.344,182.704 272.217,182.200 272.000 C 181.760 271.811,181.130 271.656,180.800 271.656 C 180.422 271.656,180.496 271.783,181.000 272.000 M189.500 273.082 C 189.995 273.178,190.805 273.178,191.300 273.082 C 191.795 272.987,191.390 272.909,190.400 272.909 C 189.410 272.909,189.005 272.987,189.500 273.082 M200.305 273.083 C 200.802 273.179,201.522 273.175,201.905 273.075 C 202.287 272.975,201.880 272.896,201.000 272.901 C 200.120 272.905,199.807 272.987,200.305 273.083 M194.311 273.493 C 195.251 273.578,196.691 273.577,197.511 273.491 C 198.330 273.405,197.560 273.336,195.800 273.337 C 194.040 273.339,193.370 273.409,194.311 273.493 M306.700 274.682 C 307.195 274.778,308.005 274.778,308.500 274.682 C 308.995 274.587,308.590 274.509,307.600 274.509 C 306.610 274.509,306.205 274.587,306.700 274.682 M314.305 274.683 C 314.802 274.779,315.522 274.775,315.905 274.675 C 316.287 274.575,315.880 274.496,315.000 274.501 C 314.120 274.505,313.807 274.587,314.305 274.683 " stroke="none" fill="#c4ac34" fill-rule="evenodd"></path></g></svg>