<?xml version="1.0" encoding="UTF-8"?>
<svg width="827px" height="544px" viewBox="0 0 827 544" version="1.1" xmlns="http://www.w3.org/2000/svg" xmlns:xlink="http://www.w3.org/1999/xlink">
    <!-- Generator: Sketch 48.2 (47327) - http://www.bohemiancoding.com/sketch -->
    <title>Line</title>
    <desc>Created with Sketch.</desc>
    <defs></defs>
    <g id="Page-1" stroke="none" stroke-width="1" fill="none" fill-rule="evenodd" stroke-linecap="square">
        <path d="M23,244 L289.799283,44 C344.803326,2.55066354 355.809897,7.38399687 322.818996,58.5 C239.625366,186.321274 183.711985,286.821274 155.078853,360 C126.445722,433.178726 136.131504,446.178726 184.136201,399 C316.203751,258.910492 424.50841,154.243825 509.050179,85 C593.591948,15.7561745 624.410347,6.92284119 601.505376,58.5 C555.088903,162.39943 511.943144,266.566097 472.0681,371 C432.193056,475.433903 432.193056,527.767236 472.0681,528 C485.496667,526.628184 496.473967,522.29485 505,515 C513.526033,507.70515 613.1927,417.371816 804,244" id="Line" stroke="#979797" stroke-width="32"></path>
    </g>
</svg>