<svg id="svg" version="1.1" xmlns="http://www.w3.org/2000/svg" xmlns:xlink="http://www.w3.org/1999/xlink" width="400" height="97.64918625678119" viewBox="0, 0, 400,97.64918625678119"><g id="svgg"><path id="path0" d="M290.583 0.118 C 290.400 0.163,290.025 0.296,289.750 0.414 C 289.475 0.531,289.023 0.713,288.746 0.818 C 287.842 1.161,285.833 3.442,285.833 4.127 C 285.833 4.296,285.759 4.508,285.668 4.599 C 285.186 5.080,285.154 8.171,285.202 49.333 L 285.250 91.250 285.713 92.407 C 286.143 93.483,286.950 94.773,287.099 94.624 C 287.134 94.588,287.521 94.902,287.957 95.321 C 289.600 96.901,284.736 96.743,333.250 96.793 C 362.162 96.824,376.185 96.782,376.750 96.666 C 379.442 96.109,381.672 93.837,382.169 91.144 C 382.446 89.649,382.310 5.553,382.030 4.917 C 381.909 4.642,381.816 4.398,381.824 4.374 C 381.886 4.180,381.222 3.000,380.789 2.535 C 379.650 1.312,379.384 1.103,378.333 0.601 L 377.250 0.083 334.083 0.060 C 310.342 0.048,290.767 0.074,290.583 0.118 M55.083 13.272 C 52.847 13.618,50.044 15.419,49.408 16.917 C 49.292 17.192,49.044 17.591,48.859 17.805 C 47.852 18.964,47.770 24.246,48.744 25.220 C 48.871 25.347,49.094 25.735,49.238 26.081 C 49.686 27.153,51.475 28.722,52.958 29.344 C 59.452 32.066,66.121 26.808,64.852 19.966 C 64.647 18.861,64.039 17.333,63.805 17.333 C 63.729 17.333,63.667 17.224,63.667 17.089 C 63.667 16.683,61.746 14.763,60.855 14.278 C 59.311 13.437,56.819 13.003,55.083 13.272 M309.721 14.081 C 311.893 14.785,313.837 16.849,314.516 19.171 C 314.636 19.581,314.805 19.966,314.892 20.025 C 315.104 20.171,315.095 22.932,314.881 23.203 C 314.789 23.320,314.664 23.622,314.604 23.873 C 314.090 26.025,312.163 28.223,310.023 29.099 C 306.916 30.370,303.292 29.586,301.090 27.167 C 300.547 26.571,300.058 26.046,300.003 26.000 C 298.767 24.969,298.491 20.428,299.536 18.313 C 300.440 16.484,302.787 14.246,304.000 14.057 C 304.137 14.036,304.550 13.941,304.917 13.847 C 306.492 13.440,307.969 13.512,309.721 14.081 M0.000 48.417 L 0.000 82.667 21.500 82.667 L 43.000 82.667 43.000 75.583 L 43.000 68.500 29.167 68.500 L 15.333 68.500 15.314 41.458 C 15.303 26.585,15.303 14.360,15.314 14.292 C 15.324 14.223,11.883 14.167,7.667 14.167 L 0.000 14.167 0.000 48.417 M123.500 48.423 L 123.500 82.667 130.833 82.667 L 138.167 82.667 138.176 71.292 C 138.184 62.417,138.230 59.988,138.385 60.241 C 138.494 60.420,139.186 61.470,139.922 62.575 C 140.658 63.679,141.434 64.882,141.647 65.246 C 141.860 65.611,142.216 66.136,142.438 66.413 C 142.660 66.690,143.336 67.667,143.941 68.583 C 144.545 69.500,145.089 70.287,145.149 70.333 C 145.209 70.379,145.442 70.770,145.667 71.201 C 145.892 71.633,146.291 72.233,146.555 72.535 C 146.818 72.836,147.148 73.308,147.288 73.583 C 147.541 74.082,149.299 76.675,149.490 76.833 C 149.546 76.879,149.775 77.270,150.000 77.701 C 150.225 78.133,150.605 78.711,150.845 78.985 C 151.084 79.260,151.559 79.961,151.900 80.544 C 152.241 81.127,152.724 81.843,152.973 82.136 L 153.427 82.667 162.558 82.667 L 171.689 82.667 171.571 82.295 C 171.426 81.839,170.820 81.000,170.635 81.000 C 170.561 81.000,170.519 80.932,170.542 80.850 C 170.565 80.767,170.451 80.561,170.288 80.392 C 170.126 80.222,169.624 79.558,169.174 78.917 C 168.723 78.275,168.244 77.637,168.110 77.500 C 167.975 77.362,167.604 76.861,167.284 76.385 C 166.964 75.909,166.645 75.572,166.575 75.635 C 166.504 75.698,166.499 75.659,166.563 75.547 C 166.630 75.430,166.460 75.114,166.161 74.801 C 165.876 74.503,165.305 73.751,164.893 73.131 C 164.481 72.511,164.052 71.947,163.941 71.877 C 163.830 71.807,163.490 71.356,163.185 70.875 C 162.881 70.394,162.565 70.000,162.483 70.000 C 162.401 70.000,162.333 69.917,162.333 69.815 C 162.333 69.714,161.969 69.170,161.524 68.607 C 161.079 68.044,160.524 67.283,160.291 66.917 C 160.059 66.550,159.598 65.959,159.267 65.604 C 158.937 65.249,158.667 64.885,158.667 64.795 C 158.667 64.584,157.680 63.316,157.295 63.032 C 157.133 62.912,157.000 62.740,157.000 62.650 C 157.000 62.560,156.337 61.608,155.527 60.534 C 154.717 59.461,153.919 58.348,153.752 58.060 L 153.450 57.537 154.017 56.820 C 154.328 56.426,154.880 55.815,155.242 55.463 C 155.604 55.111,156.025 54.633,156.177 54.400 C 156.330 54.168,156.896 53.499,157.436 52.914 C 158.417 51.849,159.275 50.888,160.781 49.167 C 161.222 48.663,161.808 47.993,162.083 47.678 C 162.358 47.364,162.985 46.651,163.477 46.095 C 163.968 45.539,164.632 44.783,164.953 44.417 C 165.274 44.050,165.743 43.525,165.995 43.250 C 166.248 42.975,166.771 42.375,167.156 41.917 C 167.542 41.458,168.209 40.699,168.637 40.228 C 171.048 37.583,172.000 36.447,172.000 36.216 C 172.000 36.042,170.250 36.000,163.004 36.000 L 154.009 36.000 153.751 36.498 C 153.609 36.773,153.317 37.112,153.102 37.253 C 152.888 37.394,152.355 37.994,151.920 38.588 C 151.484 39.181,151.068 39.667,150.996 39.667 C 150.923 39.667,150.470 40.173,149.989 40.792 C 149.507 41.410,148.863 42.128,148.557 42.387 C 148.251 42.646,147.999 42.946,147.997 43.054 C 147.995 43.162,147.470 43.806,146.830 44.486 C 146.190 45.166,145.667 45.779,145.667 45.848 C 145.667 45.918,145.378 46.261,145.025 46.612 C 144.672 46.963,143.842 47.887,143.181 48.667 C 141.782 50.316,141.456 50.690,140.011 52.311 C 139.421 52.972,138.783 53.754,138.594 54.049 L 138.250 54.583 138.208 34.372 L 138.165 14.160 130.833 14.170 L 123.500 14.180 123.500 48.423 M256.459 27.250 L 256.417 40.334 254.941 38.917 C 254.130 38.138,253.378 37.500,253.271 37.500 C 253.163 37.500,252.695 37.249,252.229 36.943 C 249.208 34.953,241.978 34.099,237.083 35.154 C 235.477 35.500,232.841 36.389,232.681 36.638 C 232.627 36.721,232.246 36.959,231.833 37.167 C 230.082 38.051,227.949 39.825,226.471 41.628 C 225.983 42.223,225.497 42.801,225.390 42.911 C 225.041 43.274,224.038 44.921,223.760 45.586 C 223.610 45.945,223.412 46.285,223.320 46.342 C 223.078 46.491,222.293 48.501,221.761 50.333 C 221.509 51.204,221.238 52.041,221.159 52.194 C 220.488 53.490,220.042 63.497,220.624 64.198 C 220.737 64.335,220.790 64.488,220.740 64.537 C 220.600 64.678,221.016 66.833,221.184 66.833 C 221.266 66.833,221.333 66.969,221.333 67.134 C 221.333 67.530,222.440 70.855,222.615 70.984 C 222.689 71.039,222.775 71.233,222.805 71.417 C 222.835 71.600,223.117 72.126,223.430 72.585 C 223.744 73.044,224.000 73.485,224.000 73.565 C 224.000 73.715,224.803 74.871,225.514 75.745 C 226.449 76.894,228.558 78.874,229.452 79.443 C 229.983 79.780,230.443 80.121,230.474 80.200 C 230.555 80.403,232.737 81.485,233.815 81.856 C 234.309 82.026,234.797 82.231,234.899 82.312 C 236.024 83.210,242.971 83.923,246.083 83.459 C 247.310 83.277,249.167 82.814,249.167 82.690 C 249.167 82.632,249.364 82.572,249.605 82.558 C 249.846 82.544,250.090 82.466,250.147 82.384 C 250.204 82.302,250.989 81.871,251.892 81.427 C 252.796 80.982,253.808 80.361,254.142 80.046 C 254.477 79.731,255.022 79.288,255.355 79.061 C 255.688 78.834,256.326 78.184,256.772 77.616 L 257.583 76.583 257.629 79.625 L 257.674 82.667 264.420 82.667 L 271.167 82.667 271.167 48.417 L 271.167 14.167 263.834 14.167 L 256.502 14.167 256.459 27.250 M191.833 34.839 C 188.848 35.074,183.853 36.191,183.697 36.660 C 183.665 36.755,183.558 36.833,183.459 36.833 C 183.360 36.833,182.725 37.096,182.050 37.417 C 181.374 37.737,180.756 38.000,180.677 38.000 C 180.598 38.000,180.152 38.281,179.685 38.625 C 179.218 38.969,178.520 39.438,178.134 39.667 C 177.192 40.226,173.704 43.709,173.043 44.750 C 172.752 45.208,172.295 45.883,172.027 46.250 C 171.520 46.942,170.333 49.510,170.333 49.913 C 170.333 50.039,170.228 50.248,170.099 50.377 C 169.848 50.628,169.457 51.846,169.586 51.975 C 169.629 52.018,169.592 52.139,169.505 52.244 C 168.901 52.972,168.468 59.591,168.824 62.653 C 169.022 64.362,169.765 67.672,169.986 67.833 C 170.049 67.879,170.240 68.292,170.410 68.750 C 170.811 69.831,171.968 72.210,172.149 72.326 C 172.226 72.376,172.571 72.867,172.917 73.417 C 173.979 75.110,177.228 78.354,177.710 78.204 C 177.792 78.179,177.813 78.232,177.757 78.322 C 177.702 78.412,177.827 78.590,178.036 78.718 C 178.246 78.846,179.104 79.376,179.943 79.897 C 181.361 80.777,183.884 81.906,184.820 82.080 C 185.042 82.121,185.269 82.229,185.325 82.320 C 185.667 82.874,191.019 83.659,194.479 83.663 C 197.743 83.668,202.756 82.907,203.167 82.345 C 203.213 82.283,203.737 82.057,204.333 81.844 C 205.907 81.280,207.376 80.562,207.932 80.084 C 208.199 79.855,208.478 79.667,208.553 79.667 C 209.326 79.666,214.517 74.881,214.306 74.365 C 214.200 74.108,212.913 73.065,211.687 72.242 C 211.010 71.788,210.193 71.176,209.870 70.882 C 209.548 70.588,209.037 70.231,208.735 70.087 C 208.433 69.944,207.970 69.611,207.706 69.347 C 207.441 69.082,206.818 68.618,206.321 68.314 C 205.824 68.010,205.192 67.553,204.917 67.298 C 204.263 66.692,204.119 66.711,203.556 67.474 C 202.518 68.881,200.347 70.833,199.821 70.833 C 199.742 70.833,199.336 71.050,198.918 71.316 C 198.499 71.581,197.879 71.850,197.538 71.914 C 197.198 71.978,196.846 72.075,196.757 72.130 C 196.119 72.525,192.230 72.503,190.917 72.097 C 190.367 71.927,189.823 71.786,189.708 71.783 C 189.594 71.780,189.500 71.715,189.500 71.639 C 189.500 71.563,189.387 71.500,189.250 71.500 C 189.112 71.500,189.000 71.417,189.000 71.316 C 189.000 71.214,188.884 71.176,188.741 71.230 C 188.599 71.285,188.520 71.269,188.566 71.195 C 188.612 71.121,188.237 70.810,187.732 70.504 C 187.227 70.198,186.463 69.534,186.032 69.028 C 185.602 68.523,185.113 67.953,184.945 67.763 C 184.539 67.301,183.690 65.290,183.561 64.481 L 183.457 63.833 199.979 63.833 L 216.500 63.833 216.500 60.120 C 216.500 55.254,215.606 48.832,214.862 48.346 C 214.781 48.293,214.621 47.962,214.506 47.609 C 214.203 46.679,213.205 44.562,212.948 44.304 C 212.828 44.183,212.443 43.637,212.095 43.091 C 211.502 42.163,209.429 39.996,207.862 38.667 C 207.090 38.012,203.288 36.013,202.659 35.931 C 202.434 35.902,202.051 35.798,201.807 35.699 C 199.911 34.932,195.499 34.552,191.833 34.839 M96.483 35.072 C 96.443 35.112,96.087 35.184,95.690 35.232 C 94.291 35.400,91.500 36.370,91.500 36.687 C 91.500 36.768,91.400 36.833,91.278 36.833 C 91.155 36.833,90.627 37.133,90.104 37.500 C 89.580 37.867,89.114 38.167,89.069 38.167 C 88.851 38.167,86.345 40.871,86.145 41.321 C 85.739 42.239,85.667 41.876,85.667 38.917 L 85.667 36.000 78.586 36.000 L 71.505 36.000 71.501 59.333 L 71.498 82.667 78.824 82.667 L 86.150 82.667 86.214 69.208 C 86.285 54.193,86.273 54.357,87.437 52.102 C 89.029 49.019,91.204 47.848,94.968 48.048 C 98.960 48.260,100.610 49.847,101.530 54.362 C 101.646 54.932,101.748 60.148,101.814 68.917 L 101.917 82.583 109.208 82.627 L 116.500 82.670 116.500 68.043 C 116.500 54.140,116.429 51.456,115.988 48.583 C 115.779 47.219,115.021 44.288,114.847 44.167 C 114.781 44.121,114.596 43.746,114.435 43.333 C 113.374 40.608,110.402 37.379,108.495 36.880 C 108.314 36.833,108.167 36.736,108.167 36.665 C 108.167 35.815,97.232 34.324,96.483 35.072 M354.167 35.576 C 357.158 35.980,359.165 36.695,361.026 38.019 C 361.269 38.192,361.522 38.333,361.588 38.333 C 362.658 38.333,366.014 43.867,366.590 46.583 C 366.746 47.317,366.914 48.029,366.963 48.167 C 367.013 48.304,367.048 48.454,367.041 48.500 C 367.035 48.546,367.142 49.371,367.278 50.333 C 367.477 51.737,367.543 55.076,367.612 67.208 L 367.698 82.333 360.682 82.333 L 353.667 82.333 353.667 69.193 C 353.667 56.846,353.564 53.458,353.183 53.167 C 353.123 53.121,352.939 52.633,352.774 52.083 C 351.840 48.968,349.681 47.614,345.751 47.679 C 342.415 47.735,339.997 48.860,339.079 50.785 C 338.939 51.079,338.751 51.364,338.662 51.419 C 338.573 51.475,338.500 51.660,338.500 51.831 C 338.500 52.003,338.388 52.255,338.250 52.392 C 337.379 53.264,337.172 56.735,337.169 70.542 L 337.167 82.333 330.167 82.333 L 323.167 82.333 323.167 59.333 L 323.167 36.333 329.917 36.333 L 336.667 36.333 336.667 39.500 C 336.667 43.099,336.795 43.386,337.737 41.895 C 338.005 41.471,338.380 40.963,338.570 40.765 C 338.761 40.568,339.237 40.052,339.628 39.620 C 340.020 39.187,340.376 38.833,340.419 38.833 C 340.462 38.833,340.847 38.567,341.274 38.241 C 341.701 37.915,342.358 37.492,342.733 37.302 C 343.109 37.111,343.454 36.901,343.500 36.836 C 344.259 35.747,350.218 35.043,354.167 35.576 M49.167 59.333 L 49.167 82.670 56.542 82.627 L 63.917 82.583 63.917 59.333 L 63.917 36.083 56.542 36.040 L 49.167 35.997 49.167 59.333 M313.833 59.333 L 313.833 82.333 306.833 82.333 L 299.833 82.333 299.833 59.333 L 299.833 36.333 306.833 36.333 L 313.833 36.333 313.833 59.333 M195.083 45.496 C 195.175 45.564,195.440 45.666,195.672 45.721 C 198.755 46.454,201.086 49.100,201.721 52.583 L 201.933 53.750 192.654 53.706 L 183.375 53.661 183.602 52.581 C 183.986 50.748,184.911 49.227,186.667 47.541 C 187.154 47.074,188.657 46.195,189.158 46.085 C 189.438 46.024,189.667 45.923,189.667 45.862 C 189.667 45.800,189.905 45.733,190.196 45.713 C 190.487 45.692,190.769 45.603,190.824 45.515 C 191.007 45.218,194.692 45.202,195.083 45.496 M247.917 47.667 C 247.973 47.758,248.187 47.833,248.391 47.833 C 251.851 47.833,255.814 51.163,256.921 55.000 C 257.093 55.596,257.313 56.137,257.409 56.202 C 257.677 56.385,257.644 61.869,257.375 61.958 C 257.260 61.997,257.164 62.190,257.161 62.389 C 257.136 64.020,255.095 67.344,253.448 68.433 C 252.915 68.786,252.401 69.169,252.304 69.285 C 250.862 71.022,241.935 70.935,240.167 69.167 C 239.930 68.930,238.704 68.029,238.394 67.865 C 237.406 67.339,235.614 63.800,235.261 61.679 C 234.775 58.753,235.272 54.608,236.243 53.500 C 236.363 53.362,236.650 52.875,236.881 52.417 C 237.886 50.416,240.554 48.584,243.286 48.018 C 244.039 47.861,244.708 47.681,244.772 47.617 C 244.954 47.435,247.801 47.480,247.917 47.667 M392.785 83.937 C 392.723 84.000,392.427 84.043,392.127 84.034 C 390.847 83.993,388.348 85.597,387.571 86.958 C 387.401 87.256,387.213 87.500,387.154 87.500 C 386.908 87.500,386.438 89.498,386.428 90.583 C 386.381 95.463,390.712 98.534,395.583 97.077 C 399.347 95.950,401.068 91.232,399.130 87.359 C 398.665 86.430,397.491 85.167,397.092 85.167 C 397.025 85.167,396.779 85.017,396.545 84.833 C 396.312 84.650,395.982 84.500,395.811 84.500 C 395.640 84.500,395.500 84.428,395.500 84.341 C 395.500 84.253,395.256 84.144,394.958 84.098 C 393.553 83.882,392.890 83.832,392.785 83.937 M395.583 85.654 C 398.159 86.778,399.496 90.048,398.486 92.750 C 398.165 93.607,395.936 96.158,395.708 95.930 C 395.669 95.891,395.349 95.960,394.998 96.084 C 394.341 96.316,392.444 96.441,392.000 96.282 C 391.863 96.232,391.450 96.100,391.083 95.987 C 390.008 95.656,388.283 93.820,387.940 92.640 C 386.531 87.792,391.040 83.670,395.583 85.654 M390.667 90.833 L 390.667 94.500 391.417 94.500 L 392.167 94.500 392.167 93.000 C 392.167 91.511,392.170 91.500,392.583 91.500 C 392.813 91.500,393.000 91.558,393.000 91.630 C 393.000 91.701,393.206 91.992,393.458 92.277 C 393.710 92.562,394.123 93.179,394.375 93.648 C 394.821 94.476,394.854 94.500,395.574 94.500 C 396.401 94.500,396.498 94.150,395.870 93.432 C 395.034 92.476,394.473 91.333,394.840 91.333 C 395.547 91.333,396.425 89.944,396.256 89.093 C 396.009 87.850,395.985 87.810,395.286 87.493 C 394.724 87.238,394.192 87.173,392.625 87.170 L 390.667 87.167 390.667 90.833 M394.611 88.769 C 395.173 89.627,394.440 90.280,392.875 90.317 L 392.167 90.333 392.167 89.333 L 392.167 88.333 393.246 88.333 C 394.226 88.333,394.352 88.373,394.611 88.769 " stroke="none" fill="#2c64b4" fill-rule="evenodd"></path><path id="path1" d="" stroke="none" fill="#2c6cb4" fill-rule="evenodd"></path><path id="path2" d="" stroke="none" fill="#3064b4" fill-rule="evenodd"></path><path id="path3" d="" stroke="none" fill="#3064b4" fill-rule="evenodd"></path><path id="path4" d="" stroke="none" fill="#3064b4" fill-rule="evenodd"></path></g></svg>